<svg width="452" height="116" viewBox="0 0 452 116" fill="none" xmlns="http://www.w3.org/2000/svg">
<path d="M79.9648 114L79.0082 114.291L79.2241 115H79.9648V114ZM72.2012 88.5117L73.1578 88.2203L72.9419 87.5117H72.2012V88.5117ZM33.1631 88.5117V87.5117H32.4223L32.2065 88.2203L33.1631 88.5117ZM25.3994 114V115H26.1402L26.356 114.291L25.3994 114ZM0.936523 114L-0.00689328 113.668L-0.474952 115H0.936523V114ZM38.7295 6.48047V5.48047H38.021L37.7861 6.14886L38.7295 6.48047ZM66.4883 6.48047L67.4313 6.14772L67.1958 5.48047H66.4883V6.48047ZM104.428 114V115H105.841L105.371 113.667L104.428 114ZM66.7812 69.4688V70.4688H68.1392L67.7362 69.172L66.7812 69.4688ZM54.623 30.2842L53.6627 30.563L53.6648 30.5701L53.6669 30.5772L54.623 30.2842ZM52.7188 23.1064L53.6949 22.8895L51.7504 22.8568L52.7188 23.1064ZM38.876 69.4688L37.9205 69.1736L37.5204 70.4688H38.876V69.4688ZM80.9214 113.709L73.1578 88.2203L71.2446 88.8031L79.0082 114.291L80.9214 113.709ZM72.2012 87.5117H33.1631V89.5117H72.2012V87.5117ZM32.2065 88.2203L24.4428 113.709L26.356 114.291L34.1197 88.8031L32.2065 88.2203ZM25.3994 113H0.936523V115H25.3994V113ZM1.87994 114.332L39.6729 6.81208L37.7861 6.14886L-0.00689328 113.668L1.87994 114.332ZM38.7295 7.48047H66.4883V5.48047H38.7295V7.48047ZM65.5453 6.81322L103.485 114.333L105.371 113.667L67.4313 6.14772L65.5453 6.81322ZM104.428 113H79.9648V115H104.428V113ZM67.7362 69.172C60.558 46.0748 56.5061 33.0161 55.5792 29.9912L53.6669 30.5772C54.5954 33.607 58.649 46.6712 65.8263 69.7655L67.7362 69.172ZM55.5834 30.0054C54.7067 26.9858 54.0788 24.6167 53.6949 22.8895L51.7426 23.3234C52.14 25.1118 52.7815 27.5279 53.6627 30.563L55.5834 30.0054ZM51.7504 22.8568C50.1463 29.0787 45.5403 44.507 37.9205 69.1736L39.8314 69.7639C47.446 45.1141 52.0685 29.6342 53.6871 23.3561L51.7504 22.8568ZM38.876 70.4688H66.7812V68.4688H38.876V70.4688ZM184.481 41.9297L183.671 42.5154L183.673 42.5179L184.481 41.9297ZM184.188 104.332L183.394 103.725L183.391 103.729L184.188 104.332ZM138.559 104.991L139.346 104.375L139.046 103.991H138.559V104.991ZM137.021 104.991V103.991H136.353L136.097 104.608L137.021 104.991ZM133.285 114V115H133.953L134.209 114.383L133.285 114ZM116.22 114H115.22V115H116.22V114ZM116.22 0.0351562V-0.964844H115.22V0.0351562H116.22ZM138.559 0.0351562H139.559V-0.964844H138.559V0.0351562ZM137.68 42.7354L136.683 42.6566L136.598 43.7354H137.68V42.7354ZM138.559 42.7354V43.7354H139.104L139.399 43.2771L138.559 42.7354ZM142.514 53.5752L143.312 54.1771L143.316 54.1715L142.514 53.5752ZM138.559 70.3477L137.559 70.3352V70.3477H138.559ZM142.44 91.6611L141.613 92.2232L141.618 92.2303L142.44 91.6611ZM165.805 91.0752L164.964 90.534L164.962 90.5364L165.805 91.0752ZM165.805 54.5273L164.976 55.0867L164.979 55.0913L165.805 54.5273ZM161.776 31.5771C171.137 31.5771 178.398 35.2179 183.671 42.5154L185.292 41.344C179.627 33.5048 171.752 29.5771 161.776 29.5771V31.5771ZM183.673 42.5179C188.975 49.8089 191.685 59.9032 191.685 72.9111H193.685C193.685 59.6495 190.925 49.0896 185.29 41.3415L183.673 42.5179ZM191.685 72.9111C191.685 86.3123 188.877 96.5406 183.394 103.725L184.983 104.939C190.828 97.2797 193.685 86.5608 193.685 72.9111H191.685ZM183.391 103.729C177.974 110.888 170.61 114.465 161.19 114.465V116.465C171.204 116.465 179.172 112.62 184.986 104.935L183.391 103.729ZM161.19 114.465C151.849 114.465 144.607 111.092 139.346 104.375L137.771 105.608C143.447 112.855 151.294 116.465 161.19 116.465V114.465ZM138.559 103.991H137.021V105.991H138.559V103.991ZM136.097 104.608L132.361 113.617L134.209 114.383L137.944 105.374L136.097 104.608ZM133.285 113H116.22V115H133.285V113ZM117.22 114V0.0351562H115.22V114H117.22ZM116.22 1.03516H138.559V-0.964844H116.22V1.03516ZM137.559 0.0351562V26.5488H139.559V0.0351562H137.559ZM137.559 26.5488C137.559 29.8756 137.269 35.2375 136.683 42.6566L138.677 42.8141C139.263 35.3895 139.559 29.9603 139.559 26.5488H137.559ZM137.68 43.7354H138.559V41.7354H137.68V43.7354ZM139.399 43.2771C144.426 35.4783 151.837 31.5771 161.776 31.5771V29.5771C151.208 29.5771 143.14 33.7814 137.718 42.1936L139.399 43.2771ZM154.599 47.4482C148.867 47.4482 144.492 49.2345 141.711 52.9789L143.316 54.1715C145.613 51.08 149.295 49.4482 154.599 49.4482V47.4482ZM141.715 52.9733C138.978 56.6054 137.657 62.4668 137.559 70.3352L139.559 70.3602C139.655 62.6035 140.971 57.2833 143.312 54.177L141.715 52.9733ZM137.559 70.3477V72.7646H139.559V70.3477H137.559ZM137.559 72.7646C137.559 81.5999 138.849 88.1556 141.613 92.2232L143.268 91.0991C140.856 87.5495 139.559 81.5075 139.559 72.7646H137.559ZM141.618 92.2303C144.484 96.3704 148.982 98.374 154.892 98.374V96.374C149.473 96.374 145.67 94.5691 143.263 91.0919L141.618 92.2303ZM154.892 98.374C159.856 98.374 163.797 96.0711 166.647 91.614L164.962 90.5364C162.442 94.4778 159.107 96.374 154.892 96.374V98.374ZM166.646 91.6164C169.529 87.1374 170.906 80.7626 170.906 72.6182H168.906C168.906 80.587 167.55 86.5169 164.964 90.534L166.646 91.6164ZM170.906 72.6182C170.906 64.4804 169.531 58.2107 166.63 53.9634L164.979 55.0913C167.547 58.8518 168.906 64.6427 168.906 72.6182H170.906ZM166.634 53.968C163.721 49.6504 159.68 47.4482 154.599 47.4482V49.4482C158.99 49.4482 162.42 51.2988 164.976 55.0866L166.634 53.968ZM232.895 91.2949L232.05 91.8312L232.055 91.8382L232.895 91.2949ZM258.749 91.3682L257.905 90.8319L257.903 90.8345L258.749 91.3682ZM232.895 54.6738L233.73 55.2238L233.733 55.2192L232.895 54.6738ZM224.838 110.338L224.338 111.204L224.343 111.207L224.838 110.338ZM227.939 72.9111C227.939 81.0959 229.265 87.4474 232.05 91.8312L233.739 90.7587C231.25 86.8417 229.939 80.9373 229.939 72.9111H227.939ZM232.055 91.8382C234.966 96.3373 239.67 98.5205 245.932 98.5205V96.5205C240.181 96.5205 236.194 94.5534 233.734 90.7517L232.055 91.8382ZM245.932 98.5205C252.142 98.5205 256.78 96.3626 259.595 91.9018L257.903 90.8345C255.542 94.5769 251.636 96.5205 245.932 96.5205V98.5205ZM259.593 91.9044C262.379 87.5199 263.704 81.1433 263.704 72.9111H261.704C261.704 80.9876 260.393 86.9156 257.905 90.8319L259.593 91.9044ZM263.704 72.9111C263.704 64.7292 262.379 58.4197 259.587 54.1285L257.911 55.2192C260.392 59.0335 261.704 64.8822 261.704 72.9111H263.704ZM259.587 54.1285C256.72 49.7218 252.036 47.5947 245.785 47.5947V49.5947C251.546 49.5947 255.504 51.5204 257.911 55.2192L259.587 54.1285ZM245.785 47.5947C239.58 47.5947 234.922 49.7243 232.056 54.1285L233.733 55.2192C236.141 51.5179 240.077 49.5947 245.785 49.5947V47.5947ZM232.059 54.1238C229.263 58.3695 227.939 64.6832 227.939 72.9111H229.939C229.939 64.8304 231.252 58.986 233.73 55.2238L232.059 54.1238ZM284.556 72.9111C284.556 86.0648 281.09 96.2179 274.278 103.503L275.739 104.869C282.99 97.1141 286.556 86.4176 286.556 72.9111H284.556ZM274.278 103.503C267.477 110.777 257.976 114.465 245.639 114.465V116.465C258.399 116.465 268.478 112.633 275.739 104.869L274.278 103.503ZM245.639 114.465C237.927 114.465 231.168 112.79 225.333 109.469L224.343 111.207C230.52 114.722 237.628 116.465 245.639 116.465V114.465ZM225.338 109.472C219.509 106.107 215.028 101.3 211.89 95.0225L210.101 95.9169C213.407 102.53 218.156 107.635 224.338 111.204L225.338 109.472ZM211.89 95.0225C208.748 88.7403 207.161 81.3793 207.161 72.9111H205.161C205.161 81.6305 206.796 89.3085 210.101 95.9169L211.89 95.0225ZM207.161 72.9111C207.161 59.7049 210.604 49.5794 217.363 42.3952L215.906 41.0247C208.7 48.6843 205.161 59.3596 205.161 72.9111H207.161ZM217.363 42.3952C224.113 35.2207 233.636 31.5771 246.078 31.5771V29.5771C233.227 29.5771 223.122 33.3555 215.906 41.0247L217.363 42.3952ZM246.078 31.5771C253.79 31.5771 260.549 33.2523 266.384 36.5732L267.374 34.835C261.197 31.32 254.089 29.5771 246.078 29.5771V31.5771ZM266.384 36.5732C272.212 39.8901 276.691 44.6484 279.829 50.8757L281.615 49.9758C278.307 43.4102 273.557 38.3541 267.374 34.835L266.384 36.5732ZM279.829 50.8757C282.968 57.1074 284.556 64.4427 284.556 72.9111H286.556C286.556 64.192 284.92 56.5371 281.615 49.9758L279.829 50.8757ZM362.021 114L361.059 114.276L361.267 115H362.021V114ZM359.018 103.526L359.979 103.251L359.771 102.526H359.018V103.526ZM357.846 103.526V102.526H357.293L356.999 102.994L357.846 103.526ZM347.665 112.389L348.088 113.295L348.096 113.291L347.665 112.389ZM310.897 107.774L310.17 108.461L310.173 108.464L310.897 107.774ZM303.573 32.1152V31.1152H302.573V32.1152H303.573ZM325.912 32.1152H326.912V31.1152H325.912V32.1152ZM329.062 93.2725L328.244 93.8486L328.249 93.855L329.062 93.2725ZM352.646 91.4414L353.476 91.9984L353.479 91.9939L352.646 91.4414ZM356.82 32.1152V31.1152H355.82V32.1152H356.82ZM379.159 32.1152H380.159V31.1152H379.159V32.1152ZM379.159 114V115H380.159V114H379.159ZM362.982 113.724L359.979 103.251L358.056 103.802L361.059 114.276L362.982 113.724ZM359.018 102.526H357.846V104.526H359.018V102.526ZM356.999 102.994C354.715 106.629 351.472 109.461 347.234 111.486L348.096 113.291C352.647 111.117 356.191 108.04 358.692 104.058L356.999 102.994ZM347.242 111.482C342.999 113.462 338.142 114.465 332.65 114.465V116.465C338.389 116.465 343.542 115.416 348.088 113.295L347.242 111.482ZM332.65 114.465C323.203 114.465 316.256 111.95 311.622 107.085L310.173 108.464C315.305 113.852 322.859 116.465 332.65 116.465V114.465ZM311.625 107.088C306.972 102.156 304.573 95.0147 304.573 85.5088H302.573C302.573 95.3388 305.057 103.041 310.17 108.461L311.625 107.088ZM304.573 85.5088V32.1152H302.573V85.5088H304.573ZM303.573 33.1152H325.912V31.1152H303.573V33.1152ZM324.912 32.1152V79.9424H326.912V32.1152H324.912ZM324.912 79.9424C324.912 85.9397 325.972 90.626 328.244 93.8486L329.879 92.6963C327.951 89.9619 326.912 85.7615 326.912 79.9424H324.912ZM328.249 93.855C330.587 97.1173 334.281 98.667 339.096 98.667V96.667C334.73 96.667 331.736 95.287 329.874 92.6899L328.249 93.855ZM339.096 98.667C345.584 98.667 350.46 96.496 353.476 91.9984L351.815 90.8845C349.265 94.6876 345.107 96.667 339.096 96.667V98.667ZM353.479 91.9939C356.432 87.5385 357.82 80.3529 357.82 70.6406H355.82C355.82 80.2643 354.425 86.9459 351.812 90.8889L353.479 91.9939ZM357.82 70.6406V32.1152H355.82V70.6406H357.82ZM356.82 33.1152H379.159V31.1152H356.82V33.1152ZM378.159 32.1152V114H380.159V32.1152H378.159ZM379.159 113H362.021V115H379.159V113ZM451.156 95.1035H452.156V93.7433L450.858 94.149L451.156 95.1035ZM451.156 111.729L451.565 112.642L452.156 112.378V111.729H451.156ZM411.093 108.727L410.347 109.392L410.354 109.401L411.093 108.727ZM405.014 48.8877H406.014V47.8877H405.014V48.8877ZM394.32 48.8877H393.32V49.8877H394.32V48.8877ZM394.32 39.4395L393.801 38.5847L393.32 38.8767V39.4395H394.32ZM406.625 31.9688L407.144 32.8235L407.441 32.6434L407.562 32.3181L406.625 31.9688ZM413.07 14.6836V13.6836H412.376L412.133 14.3342L413.07 14.6836ZM427.353 14.6836H428.353V13.6836H427.353V14.6836ZM427.353 32.1152H426.353V33.1152H427.353V32.1152ZM450.277 32.1152H451.277V31.1152H450.277V32.1152ZM450.277 48.8877V49.8877H451.277V48.8877H450.277ZM427.353 48.8877V47.8877H426.353V48.8877H427.353ZM429.989 95.3965L429.337 96.1543L429.347 96.163L429.989 95.3965ZM437.094 98.667C441.136 98.667 445.93 97.7844 451.455 96.058L450.858 94.149C445.445 95.8406 440.864 96.667 437.094 96.667V98.667ZM450.156 95.1035V111.729H452.156V95.1035H450.156ZM450.748 110.817C445.345 113.234 438.657 114.465 430.648 114.465V116.465C438.851 116.465 445.835 115.206 451.565 112.642L450.748 110.817ZM430.648 114.465C421.861 114.465 415.669 112.256 411.831 108.052L410.354 109.401C414.72 114.182 421.565 116.465 430.648 116.465V114.465ZM411.839 108.061C408.013 103.774 406.014 97.2689 406.014 88.3652H404.014C404.014 97.528 406.067 104.597 410.347 109.392L411.839 108.061ZM406.014 88.3652V48.8877H404.014V88.3652H406.014ZM405.014 47.8877H394.32V49.8877H405.014V47.8877ZM395.32 48.8877V39.4395H393.32V48.8877H395.32ZM394.839 40.2942L407.144 32.8235L406.106 31.114L393.801 38.5847L394.839 40.2942ZM407.562 32.3181L414.007 15.033L412.133 14.3342L405.688 31.6194L407.562 32.3181ZM413.07 15.6836H427.353V13.6836H413.07V15.6836ZM426.353 14.6836V32.1152H428.353V14.6836H426.353ZM427.353 33.1152H450.277V31.1152H427.353V33.1152ZM449.277 32.1152V48.8877H451.277V32.1152H449.277ZM450.277 47.8877H427.353V49.8877H450.277V47.8877ZM426.353 48.8877V88.3652H428.353V48.8877H426.353ZM426.353 88.3652C426.353 91.7178 427.285 94.3878 429.337 96.1543L430.642 94.6387C429.177 93.3778 428.353 91.3603 428.353 88.3652H426.353ZM429.347 96.163C431.374 97.8614 433.988 98.667 437.094 98.667V96.667C434.34 96.667 432.218 95.9589 430.631 94.63L429.347 96.163Z" fill="url(#paint0_linear_188_28)" fill-opacity="0.5"/>
<defs>
<linearGradient id="paint0_linear_188_28" x1="228.5" y1="-46" x2="228.5" y2="114" gradientUnits="userSpaceOnUse">
<stop offset="0.46875" stop-color="#F75276" stop-opacity="0.88"/>
<stop offset="1" stop-color="#829DFF" stop-opacity="0"/>
</linearGradient>
</defs>
</svg>
