<svg width="454" height="118" viewBox="0 0 454 118" fill="none" xmlns="http://www.w3.org/2000/svg">
<path d="M80.9648 115L80.0082 115.291L80.2241 116H80.9648V115ZM73.2012 89.5117L74.1578 89.2203L73.9419 88.5117H73.2012V89.5117ZM34.1631 89.5117V88.5117H33.4223L33.2065 89.2203L34.1631 89.5117ZM26.3994 115V116H27.1402L27.356 115.291L26.3994 115ZM1.93652 115L0.993107 114.668L0.525048 116H1.93652V115ZM39.7295 7.48047V6.48047H39.021L38.7861 7.14886L39.7295 7.48047ZM67.4883 7.48047L68.4313 7.14772L68.1958 6.48047H67.4883V7.48047ZM105.428 115V116H106.841L106.371 114.667L105.428 115ZM67.7812 70.4688V71.4688H69.1392L68.7362 70.172L67.7812 70.4688ZM55.623 31.2842L54.6627 31.563L54.6648 31.5701L54.6669 31.5772L55.623 31.2842ZM53.7188 24.1064L54.6949 23.8895L52.7504 23.8568L53.7188 24.1064ZM39.876 70.4688L38.9205 70.1736L38.5204 71.4688H39.876V70.4688ZM81.9214 114.709L74.1578 89.2203L72.2446 89.8031L80.0082 115.291L81.9214 114.709ZM73.2012 88.5117H34.1631V90.5117H73.2012V88.5117ZM33.2065 89.2203L25.4428 114.709L27.356 115.291L35.1197 89.8031L33.2065 89.2203ZM26.3994 114H1.93652V116H26.3994V114ZM2.87994 115.332L40.6729 7.81208L38.7861 7.14886L0.993107 114.668L2.87994 115.332ZM39.7295 8.48047H67.4883V6.48047H39.7295V8.48047ZM66.5453 7.81322L104.485 115.333L106.371 114.667L68.4313 7.14772L66.5453 7.81322ZM105.428 114H80.9648V116H105.428V114ZM68.7362 70.172C61.558 47.0748 57.5061 34.0161 56.5792 30.9912L54.6669 31.5772C55.5954 34.607 59.649 47.6712 66.8263 70.7655L68.7362 70.172ZM56.5834 31.0054C55.7067 27.9858 55.0788 25.6167 54.6949 23.8895L52.7426 24.3234C53.14 26.1118 53.7815 28.5279 54.6627 31.563L56.5834 31.0054ZM52.7504 23.8568C51.1463 30.0787 46.5403 45.507 38.9205 70.1736L40.8314 70.7639C48.446 46.1141 53.0685 30.6342 54.6871 24.3561L52.7504 23.8568ZM39.876 71.4688H67.7812V69.4688H39.876V71.4688ZM185.481 42.9297L184.671 43.5154L184.673 43.5179L185.481 42.9297ZM185.188 105.332L184.394 104.725L184.391 104.729L185.188 105.332ZM139.559 105.991L140.346 105.375L140.046 104.991H139.559V105.991ZM138.021 105.991V104.991H137.353L137.097 105.608L138.021 105.991ZM134.285 115V116H134.953L135.209 115.383L134.285 115ZM117.22 115H116.22V116H117.22V115ZM117.22 1.03516V0.0351562H116.22V1.03516H117.22ZM139.559 1.03516H140.559V0.0351562H139.559V1.03516ZM138.68 43.7354L137.683 43.6566L137.598 44.7354H138.68V43.7354ZM139.559 43.7354V44.7354H140.104L140.399 44.2771L139.559 43.7354ZM143.514 54.5752L144.312 55.1771L144.316 55.1715L143.514 54.5752ZM139.559 71.3477L138.559 71.3352V71.3477H139.559ZM143.44 92.6611L142.613 93.2232L142.618 93.2303L143.44 92.6611ZM166.805 92.0752L165.964 91.534L165.962 91.5364L166.805 92.0752ZM166.805 55.5273L165.976 56.0867L165.979 56.0913L166.805 55.5273ZM162.776 32.5771C172.137 32.5771 179.398 36.2179 184.671 43.5154L186.292 42.344C180.627 34.5048 172.752 30.5771 162.776 30.5771V32.5771ZM184.673 43.5179C189.975 50.8089 192.685 60.9032 192.685 73.9111H194.685C194.685 60.6495 191.925 50.0896 186.29 42.3415L184.673 43.5179ZM192.685 73.9111C192.685 87.3123 189.877 97.5406 184.394 104.725L185.983 105.939C191.828 98.2797 194.685 87.5608 194.685 73.9111H192.685ZM184.391 104.729C178.974 111.888 171.61 115.465 162.19 115.465V117.465C172.204 117.465 180.172 113.62 185.986 105.935L184.391 104.729ZM162.19 115.465C152.849 115.465 145.607 112.092 140.346 105.375L138.771 106.608C144.447 113.855 152.294 117.465 162.19 117.465V115.465ZM139.559 104.991H138.021V106.991H139.559V104.991ZM137.097 105.608L133.361 114.617L135.209 115.383L138.944 106.374L137.097 105.608ZM134.285 114H117.22V116H134.285V114ZM118.22 115V1.03516H116.22V115H118.22ZM117.22 2.03516H139.559V0.0351562H117.22V2.03516ZM138.559 1.03516V27.5488H140.559V1.03516H138.559ZM138.559 27.5488C138.559 30.8756 138.269 36.2375 137.683 43.6566L139.677 43.8141C140.263 36.3895 140.559 30.9603 140.559 27.5488H138.559ZM138.68 44.7354H139.559V42.7354H138.68V44.7354ZM140.399 44.2771C145.426 36.4783 152.837 32.5771 162.776 32.5771V30.5771C152.208 30.5771 144.14 34.7814 138.718 43.1936L140.399 44.2771ZM155.599 48.4482C149.867 48.4482 145.492 50.2345 142.711 53.9789L144.316 55.1715C146.613 52.08 150.295 50.4482 155.599 50.4482V48.4482ZM142.715 53.9733C139.978 57.6054 138.657 63.4668 138.559 71.3352L140.559 71.3602C140.655 63.6035 141.971 58.2833 144.312 55.177L142.715 53.9733ZM138.559 71.3477V73.7646H140.559V71.3477H138.559ZM138.559 73.7646C138.559 82.5999 139.849 89.1556 142.613 93.2232L144.268 92.0991C141.856 88.5495 140.559 82.5075 140.559 73.7646H138.559ZM142.618 93.2303C145.484 97.3704 149.982 99.374 155.892 99.374V97.374C150.473 97.374 146.67 95.5691 144.263 92.0919L142.618 93.2303ZM155.892 99.374C160.856 99.374 164.797 97.0711 167.647 92.614L165.962 91.5364C163.442 95.4778 160.107 97.374 155.892 97.374V99.374ZM167.646 92.6164C170.529 88.1374 171.906 81.7626 171.906 73.6182H169.906C169.906 81.587 168.55 87.5169 165.964 91.534L167.646 92.6164ZM171.906 73.6182C171.906 65.4804 170.531 59.2107 167.63 54.9634L165.979 56.0913C168.547 59.8518 169.906 65.6427 169.906 73.6182H171.906ZM167.634 54.968C164.721 50.6504 160.68 48.4482 155.599 48.4482V50.4482C159.99 50.4482 163.42 52.2988 165.976 56.0866L167.634 54.968ZM233.895 92.2949L233.05 92.8312L233.055 92.8382L233.895 92.2949ZM259.749 92.3682L258.905 91.8319L258.903 91.8345L259.749 92.3682ZM233.895 55.6738L234.73 56.2238L234.733 56.2192L233.895 55.6738ZM225.838 111.338L225.338 112.204L225.343 112.207L225.838 111.338ZM228.939 73.9111C228.939 82.0959 230.265 88.4474 233.05 92.8312L234.739 91.7587C232.25 87.8417 230.939 81.9373 230.939 73.9111H228.939ZM233.055 92.8382C235.966 97.3373 240.67 99.5205 246.932 99.5205V97.5205C241.181 97.5205 237.194 95.5534 234.734 91.7517L233.055 92.8382ZM246.932 99.5205C253.142 99.5205 257.78 97.3626 260.595 92.9018L258.903 91.8345C256.542 95.5769 252.636 97.5205 246.932 97.5205V99.5205ZM260.593 92.9044C263.379 88.5199 264.704 82.1433 264.704 73.9111H262.704C262.704 81.9876 261.393 87.9156 258.905 91.8319L260.593 92.9044ZM264.704 73.9111C264.704 65.7292 263.379 59.4197 260.587 55.1285L258.911 56.2192C261.392 60.0335 262.704 65.8822 262.704 73.9111H264.704ZM260.587 55.1285C257.72 50.7218 253.036 48.5947 246.785 48.5947V50.5947C252.546 50.5947 256.504 52.5204 258.911 56.2192L260.587 55.1285ZM246.785 48.5947C240.58 48.5947 235.922 50.7243 233.056 55.1285L234.733 56.2192C237.141 52.5179 241.077 50.5947 246.785 50.5947V48.5947ZM233.059 55.1238C230.263 59.3695 228.939 65.6832 228.939 73.9111H230.939C230.939 65.8304 232.252 59.986 234.73 56.2238L233.059 55.1238ZM285.556 73.9111C285.556 87.0648 282.09 97.2179 275.278 104.503L276.739 105.869C283.99 98.1141 287.556 87.4176 287.556 73.9111H285.556ZM275.278 104.503C268.477 111.777 258.976 115.465 246.639 115.465V117.465C259.399 117.465 269.478 113.633 276.739 105.869L275.278 104.503ZM246.639 115.465C238.927 115.465 232.168 113.79 226.333 110.469L225.343 112.207C231.52 115.722 238.628 117.465 246.639 117.465V115.465ZM226.338 110.472C220.509 107.107 216.028 102.3 212.89 96.0225L211.101 96.9169C214.407 103.53 219.156 108.635 225.338 112.204L226.338 110.472ZM212.89 96.0225C209.748 89.7403 208.161 82.3793 208.161 73.9111H206.161C206.161 82.6305 207.796 90.3085 211.101 96.9169L212.89 96.0225ZM208.161 73.9111C208.161 60.7049 211.604 50.5794 218.363 43.3952L216.906 42.0247C209.7 49.6843 206.161 60.3596 206.161 73.9111H208.161ZM218.363 43.3952C225.113 36.2207 234.636 32.5771 247.078 32.5771V30.5771C234.227 30.5771 224.122 34.3555 216.906 42.0247L218.363 43.3952ZM247.078 32.5771C254.79 32.5771 261.549 34.2523 267.384 37.5732L268.374 35.835C262.197 32.32 255.089 30.5771 247.078 30.5771V32.5771ZM267.384 37.5732C273.212 40.8901 277.691 45.6484 280.829 51.8757L282.615 50.9758C279.307 44.4102 274.557 39.3541 268.374 35.835L267.384 37.5732ZM280.829 51.8757C283.968 58.1074 285.556 65.4427 285.556 73.9111H287.556C287.556 65.192 285.92 57.5371 282.615 50.9758L280.829 51.8757ZM363.021 115L362.059 115.276L362.267 116H363.021V115ZM360.018 104.526L360.979 104.251L360.771 103.526H360.018V104.526ZM358.846 104.526V103.526H358.293L357.999 103.994L358.846 104.526ZM348.665 113.389L349.088 114.295L349.096 114.291L348.665 113.389ZM311.897 108.774L311.17 109.461L311.173 109.464L311.897 108.774ZM304.573 33.1152V32.1152H303.573V33.1152H304.573ZM326.912 33.1152H327.912V32.1152H326.912V33.1152ZM330.062 94.2725L329.244 94.8486L329.249 94.855L330.062 94.2725ZM353.646 92.4414L354.476 92.9984L354.479 92.9939L353.646 92.4414ZM357.82 33.1152V32.1152H356.82V33.1152H357.82ZM380.159 33.1152H381.159V32.1152H380.159V33.1152ZM380.159 115V116H381.159V115H380.159ZM363.982 114.724L360.979 104.251L359.056 104.802L362.059 115.276L363.982 114.724ZM360.018 103.526H358.846V105.526H360.018V103.526ZM357.999 103.994C355.715 107.629 352.472 110.461 348.234 112.486L349.096 114.291C353.647 112.117 357.191 109.04 359.692 105.058L357.999 103.994ZM348.242 112.482C343.999 114.462 339.142 115.465 333.65 115.465V117.465C339.389 117.465 344.542 116.416 349.088 114.295L348.242 112.482ZM333.65 115.465C324.203 115.465 317.256 112.95 312.622 108.085L311.173 109.464C316.305 114.852 323.859 117.465 333.65 117.465V115.465ZM312.625 108.088C307.972 103.156 305.573 96.0147 305.573 86.5088H303.573C303.573 96.3388 306.057 104.041 311.17 109.461L312.625 108.088ZM305.573 86.5088V33.1152H303.573V86.5088H305.573ZM304.573 34.1152H326.912V32.1152H304.573V34.1152ZM325.912 33.1152V80.9424H327.912V33.1152H325.912ZM325.912 80.9424C325.912 86.9397 326.972 91.626 329.244 94.8486L330.879 93.6963C328.951 90.9619 327.912 86.7615 327.912 80.9424H325.912ZM329.249 94.855C331.587 98.1173 335.281 99.667 340.096 99.667V97.667C335.73 97.667 332.736 96.287 330.874 93.6899L329.249 94.855ZM340.096 99.667C346.584 99.667 351.46 97.496 354.476 92.9984L352.815 91.8845C350.265 95.6876 346.107 97.667 340.096 97.667V99.667ZM354.479 92.9939C357.432 88.5385 358.82 81.3529 358.82 71.6406H356.82C356.82 81.2643 355.425 87.9459 352.812 91.8889L354.479 92.9939ZM358.82 71.6406V33.1152H356.82V71.6406H358.82ZM357.82 34.1152H380.159V32.1152H357.82V34.1152ZM379.159 33.1152V115H381.159V33.1152H379.159ZM380.159 114H363.021V116H380.159V114ZM452.156 96.1035H453.156V94.7433L451.858 95.149L452.156 96.1035ZM452.156 112.729L452.565 113.642L453.156 113.378V112.729H452.156ZM412.093 109.727L411.347 110.392L411.354 110.401L412.093 109.727ZM406.014 49.8877H407.014V48.8877H406.014V49.8877ZM395.32 49.8877H394.32V50.8877H395.32V49.8877ZM395.32 40.4395L394.801 39.5847L394.32 39.8767V40.4395H395.32ZM407.625 32.9688L408.144 33.8235L408.441 33.6434L408.562 33.3181L407.625 32.9688ZM414.07 15.6836V14.6836H413.376L413.133 15.3342L414.07 15.6836ZM428.353 15.6836H429.353V14.6836H428.353V15.6836ZM428.353 33.1152H427.353V34.1152H428.353V33.1152ZM451.277 33.1152H452.277V32.1152H451.277V33.1152ZM451.277 49.8877V50.8877H452.277V49.8877H451.277ZM428.353 49.8877V48.8877H427.353V49.8877H428.353ZM430.989 96.3965L430.337 97.1543L430.347 97.163L430.989 96.3965ZM438.094 99.667C442.136 99.667 446.93 98.7844 452.455 97.058L451.858 95.149C446.445 96.8406 441.864 97.667 438.094 97.667V99.667ZM451.156 96.1035V112.729H453.156V96.1035H451.156ZM451.748 111.817C446.345 114.234 439.657 115.465 431.648 115.465V117.465C439.851 117.465 446.835 116.206 452.565 113.642L451.748 111.817ZM431.648 115.465C422.861 115.465 416.669 113.256 412.831 109.052L411.354 110.401C415.72 115.182 422.565 117.465 431.648 117.465V115.465ZM412.839 109.061C409.013 104.774 407.014 98.2689 407.014 89.3652H405.014C405.014 98.528 407.067 105.597 411.347 110.392L412.839 109.061ZM407.014 89.3652V49.8877H405.014V89.3652H407.014ZM406.014 48.8877H395.32V50.8877H406.014V48.8877ZM396.32 49.8877V40.4395H394.32V49.8877H396.32ZM395.839 41.2942L408.144 33.8235L407.106 32.114L394.801 39.5847L395.839 41.2942ZM408.562 33.3181L415.007 16.033L413.133 15.3342L406.688 32.6194L408.562 33.3181ZM414.07 16.6836H428.353V14.6836H414.07V16.6836ZM427.353 15.6836V33.1152H429.353V15.6836H427.353ZM428.353 34.1152H451.277V32.1152H428.353V34.1152ZM450.277 33.1152V49.8877H452.277V33.1152H450.277ZM451.277 48.8877H428.353V50.8877H451.277V48.8877ZM427.353 49.8877V89.3652H429.353V49.8877H427.353ZM427.353 89.3652C427.353 92.7178 428.285 95.3878 430.337 97.1543L431.642 95.6387C430.177 94.3778 429.353 92.3603 429.353 89.3652H427.353ZM430.347 97.163C432.374 98.8614 434.988 99.667 438.094 99.667V97.667C435.34 97.667 433.218 96.9589 431.631 95.63L430.347 97.163Z" fill="url(#paint0_linear)" fill-opacity="0.5"/>
<defs>
<linearGradient id="paint0_linear" x1="229.5" y1="-45" x2="229.5" y2="115" gradientUnits="userSpaceOnUse">
<stop stop-color="#FD73A8"/>
<stop offset="0.46875" stop-color="#EF6FF0" stop-opacity="0.88"/>
<stop offset="1" stop-color="#829DFF" stop-opacity="0"/>
</linearGradient>
</defs>
</svg>
