<svg width="377" height="116" viewBox="0 0 377 116" fill="none" xmlns="http://www.w3.org/2000/svg">
<path d="M60.2109 107.115L59.5876 106.333L59.5849 106.335L60.2109 107.115ZM0.884766 109.02H-0.115234V109.644L0.445556 109.918L0.884766 109.02ZM0.884766 87.9258L1.29205 87.0125L-0.115234 86.3849V87.9258H0.884766ZM19.1953 94.7373L18.9394 95.704L18.9417 95.7046L19.1953 94.7373ZM44.3906 93.8584L43.8122 93.0426L43.8051 93.0477L44.3906 93.8584ZM46.6611 79.7959L45.8441 80.3726L45.8524 80.3841L46.6611 79.7959ZM41.4609 75.0352L40.9021 75.8645L40.9103 75.8699L41.4609 75.0352ZM27.6182 67.7842L28.0476 66.8811L28.0436 66.8792L27.6182 67.7842ZM11.7246 13.5117L11.081 12.7464L11.0781 12.7488L11.7246 13.5117ZM54.2783 7.35938L54.0247 8.32669L54.027 8.32729L54.2783 7.35938ZM70.1719 12.9258L71.0955 13.309L71.4727 12.3999L70.5697 12.0083L70.1719 12.9258ZM62.8477 30.5771L62.4681 31.5023L63.3896 31.8804L63.7713 30.9604L62.8477 30.5771ZM48.6387 25.6699L48.3961 26.6401L48.3991 26.6408L48.6387 25.6699ZM25.7139 40.3916L24.8613 40.9142L24.8651 40.9204L24.869 40.9267L25.7139 40.3916ZM30.1084 44.7129L29.5309 45.5293L29.5422 45.5373L29.5537 45.5449L30.1084 44.7129ZM44.5371 52.1836L44.9684 51.2814L44.9679 51.2812L44.5371 52.1836ZM65.1182 66.6123L64.3249 67.2212L64.3279 67.2251L65.1182 66.6123ZM69.6846 84.2637C69.6846 93.6561 66.3103 100.974 59.5876 106.333L60.8343 107.897C68.0764 102.124 71.6846 94.2072 71.6846 84.2637H69.6846ZM59.5849 106.335C52.8874 111.712 43.4703 114.465 31.207 114.465V116.465C43.7485 116.465 53.6673 113.651 60.837 107.895L59.5849 106.335ZM31.207 114.465C19.908 114.465 9.9551 112.341 1.32398 108.121L0.445556 109.918C9.39255 114.292 19.6545 116.465 31.207 116.465V114.465ZM1.88477 109.02V87.9258H-0.115234V109.02H1.88477ZM0.477482 88.8391C7.73002 92.0733 13.8875 94.3667 18.9394 95.704L19.4512 93.7706C14.5422 92.4712 8.49264 90.2236 1.29205 87.0125L0.477482 88.8391ZM18.9417 95.7046C24.034 97.0395 28.7105 97.7148 32.9648 97.7148V95.7148C28.9184 95.7148 24.4153 95.0719 19.4489 93.77L18.9417 95.7046ZM32.9648 97.7148C38.0507 97.7148 42.1001 96.7462 44.9761 94.6691L43.8051 93.0477C41.4077 94.7792 37.8399 95.7148 32.9648 95.7148V97.7148ZM44.9691 94.6741C47.9596 92.5536 49.4189 89.3931 49.4189 85.3623H47.4189C47.4189 88.851 46.1928 91.3546 43.8122 93.0427L44.9691 94.6741ZM49.4189 85.3623C49.4189 83.0634 48.773 80.9995 47.4699 79.2077L45.8524 80.3841C46.893 81.8149 47.4189 83.4619 47.4189 85.3623H49.4189ZM47.4781 79.2192C46.2138 77.4282 44.3761 75.76 42.0115 74.2004L40.9103 75.8699C43.1356 77.3377 44.7647 78.8433 45.8442 80.3726L47.4781 79.2192ZM42.0198 74.2059C39.7022 72.644 35.0211 70.1972 28.0476 66.8811L27.1887 68.6873C34.18 72.0118 38.7275 74.3989 40.9021 75.8644L42.0198 74.2059ZM28.0436 66.8792C21.536 63.8196 16.7225 60.9113 13.551 58.1658L12.242 59.6779C15.6134 62.5965 20.6144 65.5964 27.1927 68.6891L28.0436 66.8792ZM13.551 58.1658C10.373 55.4147 7.84056 52.2183 5.94698 48.5732L4.17216 49.4952C6.18483 53.3695 8.87699 56.765 12.242 59.6779L13.551 58.1658ZM5.94698 48.5732C4.08048 44.9802 3.12988 40.7493 3.12988 35.8506H1.12988C1.12988 41.0105 2.13241 45.5686 4.17216 49.4952L5.94698 48.5732ZM3.12988 35.8506C3.12988 26.6291 6.22953 19.4786 12.3711 14.2747L11.0781 12.7488C4.42672 18.3847 1.12988 26.1268 1.12988 35.8506H3.12988ZM12.3682 14.2771C18.5794 9.05405 27.2105 6.38184 38.3848 6.38184V4.38184C26.9028 4.38184 17.7605 7.12955 11.081 12.7464L12.3682 14.2771ZM38.3848 6.38184C43.8716 6.38184 49.0839 7.03151 54.0248 8.32669L54.5319 6.39206C49.4142 5.05053 44.0307 4.38184 38.3848 4.38184V6.38184ZM54.027 8.32729C59.0485 9.63092 64.2972 11.4683 69.774 13.8432L70.5697 12.0083C65.0114 9.59808 59.6644 7.72454 54.5296 6.39146L54.027 8.32729ZM69.2482 12.5425L61.924 30.1939L63.7713 30.9604L71.0955 13.309L69.2482 12.5425ZM63.2272 29.652C57.4922 27.2991 52.7052 25.6433 48.8782 24.699L48.3991 26.6408C52.0917 27.552 56.7774 29.1677 62.4681 31.5023L63.2272 29.652ZM48.8812 24.6998C45.0956 23.7534 41.352 23.2783 37.6523 23.2783V25.2783C41.1792 25.2783 44.7599 25.731 48.3961 26.6401L48.8812 24.6998ZM37.6523 23.2783C33.2123 23.2783 29.6469 24.3122 27.1073 26.5277L28.422 28.0348C30.4722 26.2464 33.4986 25.2783 37.6523 25.2783V23.2783ZM27.1073 26.5277C24.5807 28.7317 23.3223 31.6257 23.3223 35.1182H25.3223C25.3223 32.1653 26.3588 29.8347 28.422 28.0348L27.1073 26.5277ZM23.3223 35.1182C23.3223 37.2804 23.8253 39.2238 24.8613 40.9142L26.5665 39.869C25.747 38.532 25.3223 36.9598 25.3223 35.1182H23.3223ZM24.869 40.9267C25.8892 42.5375 27.4632 44.0668 29.5309 45.5293L30.6859 43.8965C28.7497 42.527 27.394 41.1754 26.5587 39.8566L24.869 40.9267ZM29.5537 45.5449C31.6755 46.9595 36.5548 49.4808 44.1063 53.086L44.9679 51.2812C37.3827 47.6598 32.6428 45.2007 30.6631 43.8808L29.5537 45.5449ZM44.1058 53.0858C54.072 57.8501 60.7595 62.5768 64.3249 67.2212L65.9114 66.0034C62.055 60.9799 55.0218 56.0874 44.9684 51.2814L44.1058 53.0858ZM64.3279 67.2251C67.8826 71.8088 69.6846 77.4676 69.6846 84.2637H71.6846C71.6846 77.0949 69.7756 70.9861 65.9084 65.9995L64.3279 67.2251ZM109.796 69.4688V70.4688H110.283L110.584 70.0849L109.796 69.4688ZM119.537 57.0176L118.801 56.3403L118.774 56.3698L118.75 56.4014L119.537 57.0176ZM142.462 32.1152V31.1152H142.023L141.726 31.4379L142.462 32.1152ZM167.657 32.1152L168.395 32.7905L169.928 31.1152H167.657V32.1152ZM135.138 67.6377L134.4 66.9625L133.842 67.5718L134.335 68.2346L135.138 67.6377ZM169.635 114V115H171.625L170.437 113.403L169.635 114ZM143.854 114L143.038 114.579L143.337 115H143.854V114ZM120.27 80.8213L121.085 80.2419L120.471 79.3784L119.644 80.041L120.27 80.8213ZM110.675 88.5117L110.049 87.7314L109.675 88.0317V88.5117H110.675ZM110.675 114V115H111.675V114H110.675ZM88.3359 114H87.3359V115H88.3359V114ZM88.3359 0.0351562V-0.964844H87.3359V0.0351562H88.3359ZM110.675 0.0351562H111.675V-0.964844H110.675V0.0351562ZM110.675 50.8652L111.673 50.9281L111.675 50.8967V50.8652H110.675ZM109.503 69.4688L108.505 69.4059L108.438 70.4688H109.503V69.4688ZM110.584 70.0849L120.325 57.6338L118.75 56.4014L109.008 68.8526L110.584 70.0849ZM120.273 57.6949L143.198 32.7925L141.726 31.4379L118.801 56.3403L120.273 57.6949ZM142.462 33.1152H167.657V31.1152H142.462V33.1152ZM166.92 31.44L134.4 66.9625L135.875 68.3129L168.395 32.7905L166.92 31.44ZM134.335 68.2346L168.832 114.597L170.437 113.403L135.94 67.0407L134.335 68.2346ZM169.635 113H143.854V115H169.635V113ZM144.669 113.421L121.085 80.2419L119.454 81.4007L143.038 114.579L144.669 113.421ZM119.644 80.041L110.049 87.7314L111.3 89.292L120.895 81.6016L119.644 80.041ZM109.675 88.5117V114H111.675V88.5117H109.675ZM110.675 113H88.3359V115H110.675V113ZM89.3359 114V0.0351562H87.3359V114H89.3359ZM88.3359 1.03516H110.675V-0.964844H88.3359V1.03516ZM109.675 0.0351562V50.8652H111.675V0.0351562H109.675ZM109.677 50.8024L108.505 69.4059L110.501 69.5316L111.673 50.9281L109.677 50.8024ZM109.503 70.4688H109.796V68.4688H109.503V70.4688ZM201.642 19.0781L202.331 19.8027L202.331 19.8023L201.642 19.0781ZM203.692 114V115H204.692V114H203.692ZM181.354 114H180.354V115H181.354V114ZM181.354 32.1152V31.1152H180.354V32.1152H181.354ZM203.692 32.1152H204.692V31.1152H203.692V32.1152ZM181.401 10.9482C181.401 7.49429 182.358 5.07883 184.109 3.50761C185.88 1.91795 188.636 1.03516 192.56 1.03516V-0.964844C188.378 -0.964844 185.055 -0.0287933 182.773 2.01924C180.471 4.08572 179.401 7.1268 179.401 10.9482H181.401ZM192.56 1.03516C196.483 1.03516 199.239 1.91795 201.01 3.50761C202.761 5.07883 203.718 7.49429 203.718 10.9482H205.718C205.718 7.1268 204.648 4.08572 202.346 2.01924C200.064 -0.0287933 196.741 -0.964844 192.56 -0.964844V1.03516ZM203.718 10.9482C203.718 14.2071 202.762 16.6306 200.952 18.354L202.331 19.8023C204.623 17.6194 205.718 14.623 205.718 10.9482H203.718ZM200.952 18.3536C199.207 20.0135 196.474 20.9346 192.56 20.9346V22.9346C196.75 22.9346 200.072 21.9514 202.331 19.8027L200.952 18.3536ZM192.56 20.9346C188.637 20.9346 185.882 20.0463 184.111 18.446C182.36 16.8631 181.401 14.4286 181.401 10.9482H179.401C179.401 14.7921 180.469 17.8508 182.77 19.9299C185.052 21.9917 188.376 22.9346 192.56 22.9346V20.9346ZM203.692 113H181.354V115H203.692V113ZM182.354 114V32.1152H180.354V114H182.354ZM181.354 33.1152H203.692V31.1152H181.354V33.1152ZM202.692 32.1152V114H204.692V32.1152H202.692ZM249.542 114V115H250.542V114H249.542ZM227.203 114H226.203V115H227.203V114ZM227.203 0.0351562V-0.964844H226.203V0.0351562H227.203ZM249.542 0.0351562H250.542V-0.964844H249.542V0.0351562ZM249.542 113H227.203V115H249.542V113ZM228.203 114V0.0351562H226.203V114H228.203ZM227.203 1.03516H249.542V-0.964844H227.203V1.03516ZM248.542 0.0351562V114H250.542V0.0351562H248.542ZM295.392 114V115H296.392V114H295.392ZM273.053 114H272.053V115H273.053V114ZM273.053 0.0351562V-0.964844H272.053V0.0351562H273.053ZM295.392 0.0351562H296.392V-0.964844H295.392V0.0351562ZM295.392 113H273.053V115H295.392V113ZM274.053 114V0.0351562H272.053V114H274.053ZM273.053 1.03516H295.392V-0.964844H273.053V1.03516ZM294.392 0.0351562V114H296.392V0.0351562H294.392ZM367.242 108.873L366.642 108.073L366.639 108.075L367.242 108.873ZM325.86 114.22L326.054 113.239L326.043 113.237L325.86 114.22ZM314.068 110.704H313.068V111.365L313.676 111.624L314.068 110.704ZM314.068 92.2471L314.494 91.3423L313.068 90.6713V92.2471H314.068ZM328.058 97.1543L327.811 98.1234L327.813 98.1239L328.058 97.1543ZM352.374 87.8525L351.651 88.5438L351.659 88.5518L351.667 88.5596L352.374 87.8525ZM346.808 84.1172L346.335 84.9982L346.341 85.0016L346.347 85.0049L346.808 84.1172ZM336.261 79.21L336.65 78.2887L336.647 78.2875L336.261 79.21ZM322.345 71.8857L321.736 72.6794L321.743 72.6842L322.345 71.8857ZM315.899 64.1953L314.987 64.6057L314.992 64.6149L314.996 64.6241L315.899 64.1953ZM322.345 36.583L322.921 37.4006L322.922 37.3996L322.345 36.583ZM375.152 37.0225L376.075 37.4083L376.447 36.518L375.571 36.1142L375.152 37.0225ZM368.414 53.1357L368.02 54.0549L368.947 54.4523L369.337 53.5215L368.414 53.1357ZM339.264 57.6768L338.691 58.4969L338.7 58.503L339.264 57.6768ZM353.253 64.1953L353.628 63.2683L353.625 63.2673L353.253 64.1953ZM375.031 89.6836C375.031 97.8199 372.21 103.897 366.642 108.073L367.842 109.673C373.993 105.06 377.031 98.3442 377.031 89.6836H375.031ZM366.639 108.075C361.078 112.281 352.618 114.465 341.095 114.465V116.465C352.813 116.465 361.785 114.254 367.845 109.671L366.639 108.075ZM341.095 114.465C335.18 114.465 330.17 114.052 326.054 113.239L325.666 115.201C329.949 116.047 335.096 116.465 341.095 116.465V114.465ZM326.043 113.237C321.911 112.468 318.051 111.316 314.461 109.784L313.676 111.624C317.41 113.217 321.411 114.409 325.677 115.203L326.043 113.237ZM315.068 110.704V92.2471H313.068V110.704H315.068ZM313.643 93.1519C317.859 95.136 322.583 96.7918 327.811 98.1234L328.304 96.1852C323.18 94.8801 318.579 93.2643 314.494 91.3423L313.643 93.1519ZM327.813 98.1239C333.091 99.4557 337.766 100.132 341.827 100.132V98.1318C337.978 98.1318 333.474 97.4896 328.302 96.1847L327.813 98.1239ZM341.827 100.132C345.944 100.132 349.194 99.5425 351.446 98.2397C353.782 96.8888 354.985 94.8008 354.985 92.1006H352.985C352.985 94.0879 352.162 95.5155 350.445 96.5084C348.645 97.5493 345.816 98.1318 341.827 98.1318V100.132ZM354.985 92.1006C354.985 90.1227 354.373 88.4368 353.081 87.1454L351.667 88.5596C352.524 89.4167 352.985 90.5629 352.985 92.1006H354.985ZM353.097 87.1613C351.905 85.916 349.93 84.6099 347.268 83.2294L346.347 85.0049C348.958 86.3589 350.694 87.543 351.651 88.5438L353.097 87.1613ZM347.281 83.2362C344.605 81.7995 341.058 80.1501 336.65 78.2887L335.872 80.1312C340.252 81.9808 343.736 83.6029 346.335 84.9982L347.281 83.2362ZM336.647 78.2875C330.373 75.6611 325.825 73.2578 322.947 71.0873L321.743 72.6842C324.821 75.0058 329.551 77.4854 335.875 80.1324L336.647 78.2875ZM322.953 71.0921C320.129 68.9273 318.092 66.4831 316.803 63.7666L314.996 64.6241C316.441 67.6693 318.701 70.352 321.736 72.6794L322.953 71.0921ZM316.811 63.785C315.567 61.0187 314.922 57.5787 314.922 53.4287H312.922C312.922 57.7748 313.596 61.5125 314.987 64.6057L316.811 63.785ZM314.922 53.4287C314.922 46.4559 317.589 41.1556 322.921 37.4006L321.769 35.7654C315.87 39.9206 312.922 45.8508 312.922 53.4287H314.922ZM322.922 37.3996C328.353 33.5606 336.127 31.5771 346.368 31.5771V29.5771C335.906 29.5771 327.665 31.5976 321.767 35.7664L322.922 37.3996ZM346.368 31.5771C356.081 31.5771 365.533 33.6917 374.734 37.9307L375.571 36.1142C366.119 31.7594 356.382 29.5771 346.368 29.5771V31.5771ZM374.23 36.6367L367.491 52.7499L369.337 53.5215L376.075 37.4083L374.23 36.6367ZM368.808 52.2166C364.682 50.4481 360.817 48.9954 357.216 47.8607L356.615 49.7682C360.142 50.8796 363.943 52.3077 368.02 54.0549L368.808 52.2166ZM357.216 47.8607C353.555 46.7072 349.816 46.1299 346.002 46.1299V48.1299C349.61 48.1299 353.147 48.6756 356.615 49.7682L357.216 47.8607ZM346.002 46.1299C342.649 46.1299 339.977 46.5776 338.111 47.5869C337.162 48.0997 336.401 48.7687 335.881 49.6126C335.359 50.4592 335.114 51.4258 335.114 52.4766H337.114C337.114 51.7451 337.281 51.1522 337.583 50.6621C337.887 50.1694 338.362 49.7245 339.062 49.3462C340.491 48.5733 342.763 48.1299 346.002 48.1299V46.1299ZM335.114 52.4766C335.114 54.8953 336.407 56.9032 338.691 58.4969L339.836 56.8566C337.921 55.5207 337.114 54.0617 337.114 52.4766H335.114ZM338.7 58.503C340.953 60.0392 345.719 62.2492 352.88 65.1234L353.625 63.2673C346.431 60.3797 341.871 58.244 339.827 56.8505L338.7 58.503ZM352.878 65.1223C359.25 67.7002 363.84 70.0782 366.713 72.2447L367.918 70.6479C364.833 68.3222 360.049 65.8662 353.628 63.2683L352.878 65.1223ZM366.713 72.2447C369.584 74.4092 371.67 76.8782 373.007 79.6451L374.808 78.7748C373.313 75.6824 371.004 72.9755 367.918 70.6479L366.713 72.2447ZM373.007 79.6451C374.343 82.41 375.031 85.7455 375.031 89.6836H377.031C377.031 85.5163 376.303 81.8693 374.808 78.7748L373.007 79.6451Z" fill="url(#paint0_linear_139_2)" fill-opacity="0.5"/>
<defs>
<linearGradient id="paint0_linear_139_2" x1="196" y1="-46" x2="196" y2="114" gradientUnits="userSpaceOnUse">
<stop offset="0.515625" stop-color="#F75276" stop-opacity="0.88"/>
<stop offset="1" stop-color="#829DFF" stop-opacity="0"/>
</linearGradient>
</defs>
</svg>
