<svg width="379" height="118" viewBox="0 0 379 118" fill="none" xmlns="http://www.w3.org/2000/svg">
<path d="M61.2109 108.115L60.5876 107.333L60.5849 107.335L61.2109 108.115ZM1.88477 110.02H0.884766V110.644L1.44556 110.918L1.88477 110.02ZM1.88477 88.9258L2.29205 88.0125L0.884766 87.3849V88.9258H1.88477ZM20.1953 95.7373L19.9394 96.704L19.9417 96.7046L20.1953 95.7373ZM45.3906 94.8584L44.8122 94.0426L44.8051 94.0477L45.3906 94.8584ZM47.6611 80.7959L46.8441 81.3726L46.8524 81.3841L47.6611 80.7959ZM42.4609 76.0352L41.9021 76.8645L41.9103 76.8699L42.4609 76.0352ZM28.6182 68.7842L29.0476 67.8811L29.0436 67.8792L28.6182 68.7842ZM12.7246 14.5117L12.081 13.7464L12.0781 13.7488L12.7246 14.5117ZM55.2783 8.35938L55.0247 9.32669L55.027 9.32729L55.2783 8.35938ZM71.1719 13.9258L72.0955 14.309L72.4727 13.3999L71.5697 13.0083L71.1719 13.9258ZM63.8477 31.5771L63.4681 32.5023L64.3896 32.8804L64.7713 31.9604L63.8477 31.5771ZM49.6387 26.6699L49.3961 27.6401L49.3991 27.6408L49.6387 26.6699ZM26.7139 41.3916L25.8613 41.9142L25.8651 41.9204L25.869 41.9267L26.7139 41.3916ZM31.1084 45.7129L30.5309 46.5293L30.5422 46.5373L30.5537 46.5449L31.1084 45.7129ZM45.5371 53.1836L45.9684 52.2814L45.9679 52.2812L45.5371 53.1836ZM66.1182 67.6123L65.3249 68.2212L65.3279 68.2251L66.1182 67.6123ZM70.6846 85.2637C70.6846 94.6561 67.3103 101.974 60.5876 107.333L61.8343 108.897C69.0764 103.124 72.6846 95.2072 72.6846 85.2637H70.6846ZM60.5849 107.335C53.8874 112.712 44.4703 115.465 32.207 115.465V117.465C44.7485 117.465 54.6673 114.651 61.837 108.895L60.5849 107.335ZM32.207 115.465C20.908 115.465 10.9551 113.341 2.32398 109.121L1.44556 110.918C10.3926 115.292 20.6545 117.465 32.207 117.465V115.465ZM2.88477 110.02V88.9258H0.884766V110.02H2.88477ZM1.47748 89.8391C8.73002 93.0733 14.8875 95.3667 19.9394 96.704L20.4512 94.7706C15.5422 93.4712 9.49264 91.2236 2.29205 88.0125L1.47748 89.8391ZM19.9417 96.7046C25.034 98.0395 29.7105 98.7148 33.9648 98.7148V96.7148C29.9184 96.7148 25.4153 96.0719 20.4489 94.77L19.9417 96.7046ZM33.9648 98.7148C39.0507 98.7148 43.1001 97.7462 45.9761 95.6691L44.8051 94.0477C42.4077 95.7792 38.8399 96.7148 33.9648 96.7148V98.7148ZM45.9691 95.6741C48.9596 93.5536 50.4189 90.3931 50.4189 86.3623H48.4189C48.4189 89.851 47.1928 92.3546 44.8122 94.0427L45.9691 95.6741ZM50.4189 86.3623C50.4189 84.0634 49.773 81.9995 48.4699 80.2077L46.8524 81.3841C47.893 82.8149 48.4189 84.4619 48.4189 86.3623H50.4189ZM48.4781 80.2192C47.2138 78.4282 45.3761 76.76 43.0115 75.2004L41.9103 76.8699C44.1356 78.3377 45.7647 79.8433 46.8442 81.3726L48.4781 80.2192ZM43.0198 75.2059C40.7022 73.644 36.0211 71.1972 29.0476 67.8811L28.1887 69.6873C35.18 73.0118 39.7275 75.3989 41.9021 76.8644L43.0198 75.2059ZM29.0436 67.8792C22.536 64.8196 17.7225 61.9113 14.551 59.1658L13.242 60.6779C16.6134 63.5965 21.6144 66.5964 28.1927 69.6891L29.0436 67.8792ZM14.551 59.1658C11.373 56.4147 8.84056 53.2183 6.94698 49.5732L5.17216 50.4952C7.18483 54.3695 9.87699 57.765 13.242 60.6779L14.551 59.1658ZM6.94698 49.5732C5.08048 45.9802 4.12988 41.7493 4.12988 36.8506H2.12988C2.12988 42.0105 3.13241 46.5686 5.17216 50.4952L6.94698 49.5732ZM4.12988 36.8506C4.12988 27.6291 7.22953 20.4786 13.3711 15.2747L12.0781 13.7488C5.42672 19.3847 2.12988 27.1268 2.12988 36.8506H4.12988ZM13.3682 15.2771C19.5794 10.054 28.2105 7.38184 39.3848 7.38184V5.38184C27.9028 5.38184 18.7605 8.12955 12.081 13.7464L13.3682 15.2771ZM39.3848 7.38184C44.8716 7.38184 50.0839 8.03151 55.0248 9.32669L55.5319 7.39206C50.4142 6.05053 45.0307 5.38184 39.3848 5.38184V7.38184ZM55.027 9.32729C60.0485 10.6309 65.2972 12.4683 70.774 14.8432L71.5697 13.0083C66.0114 10.5981 60.6644 8.72454 55.5296 7.39146L55.027 9.32729ZM70.2482 13.5425L62.924 31.1939L64.7713 31.9604L72.0955 14.309L70.2482 13.5425ZM64.2272 30.652C58.4922 28.2991 53.7052 26.6433 49.8782 25.699L49.3991 27.6408C53.0917 28.552 57.7774 30.1677 63.4681 32.5023L64.2272 30.652ZM49.8812 25.6998C46.0956 24.7534 42.352 24.2783 38.6523 24.2783V26.2783C42.1792 26.2783 45.7599 26.731 49.3961 27.6401L49.8812 25.6998ZM38.6523 24.2783C34.2123 24.2783 30.6469 25.3122 28.1073 27.5277L29.422 29.0348C31.4722 27.2464 34.4986 26.2783 38.6523 26.2783V24.2783ZM28.1073 27.5277C25.5807 29.7317 24.3223 32.6257 24.3223 36.1182H26.3223C26.3223 33.1653 27.3588 30.8347 29.422 29.0348L28.1073 27.5277ZM24.3223 36.1182C24.3223 38.2804 24.8253 40.2238 25.8613 41.9142L27.5665 40.869C26.747 39.532 26.3223 37.9598 26.3223 36.1182H24.3223ZM25.869 41.9267C26.8892 43.5375 28.4632 45.0668 30.5309 46.5293L31.6859 44.8965C29.7497 43.527 28.394 42.1754 27.5587 40.8566L25.869 41.9267ZM30.5537 46.5449C32.6755 47.9595 37.5548 50.4808 45.1063 54.086L45.9679 52.2812C38.3827 48.6598 33.6428 46.2007 31.6631 44.8808L30.5537 46.5449ZM45.1058 54.0858C55.072 58.8501 61.7595 63.5768 65.3249 68.2212L66.9114 67.0034C63.055 61.9799 56.0218 57.0874 45.9684 52.2814L45.1058 54.0858ZM65.3279 68.2251C68.8826 72.8088 70.6846 78.4676 70.6846 85.2637H72.6846C72.6846 78.0949 70.7756 71.9861 66.9084 66.9995L65.3279 68.2251ZM110.796 70.4688V71.4688H111.283L111.584 71.0849L110.796 70.4688ZM120.537 58.0176L119.801 57.3403L119.774 57.3698L119.75 57.4014L120.537 58.0176ZM143.462 33.1152V32.1152H143.023L142.726 32.4379L143.462 33.1152ZM168.657 33.1152L169.395 33.7905L170.928 32.1152H168.657V33.1152ZM136.138 68.6377L135.4 67.9625L134.842 68.5718L135.335 69.2346L136.138 68.6377ZM170.635 115V116H172.625L171.437 114.403L170.635 115ZM144.854 115L144.038 115.579L144.337 116H144.854V115ZM121.27 81.8213L122.085 81.2419L121.471 80.3784L120.644 81.041L121.27 81.8213ZM111.675 89.5117L111.049 88.7314L110.675 89.0317V89.5117H111.675ZM111.675 115V116H112.675V115H111.675ZM89.3359 115H88.3359V116H89.3359V115ZM89.3359 1.03516V0.0351562H88.3359V1.03516H89.3359ZM111.675 1.03516H112.675V0.0351562H111.675V1.03516ZM111.675 51.8652L112.673 51.9281L112.675 51.8967V51.8652H111.675ZM110.503 70.4688L109.505 70.4059L109.438 71.4688H110.503V70.4688ZM111.584 71.0849L121.325 58.6338L119.75 57.4014L110.008 69.8526L111.584 71.0849ZM121.273 58.6949L144.198 33.7925L142.726 32.4379L119.801 57.3403L121.273 58.6949ZM143.462 34.1152H168.657V32.1152H143.462V34.1152ZM167.92 32.44L135.4 67.9625L136.875 69.3129L169.395 33.7905L167.92 32.44ZM135.335 69.2346L169.832 115.597L171.437 114.403L136.94 68.0407L135.335 69.2346ZM170.635 114H144.854V116H170.635V114ZM145.669 114.421L122.085 81.2419L120.454 82.4007L144.038 115.579L145.669 114.421ZM120.644 81.041L111.049 88.7314L112.3 90.292L121.895 82.6016L120.644 81.041ZM110.675 89.5117V115H112.675V89.5117H110.675ZM111.675 114H89.3359V116H111.675V114ZM90.3359 115V1.03516H88.3359V115H90.3359ZM89.3359 2.03516H111.675V0.0351562H89.3359V2.03516ZM110.675 1.03516V51.8652H112.675V1.03516H110.675ZM110.677 51.8024L109.505 70.4059L111.501 70.5316L112.673 51.9281L110.677 51.8024ZM110.503 71.4688H110.796V69.4688H110.503V71.4688ZM202.642 20.0781L203.331 20.8027L203.331 20.8023L202.642 20.0781ZM204.692 115V116H205.692V115H204.692ZM182.354 115H181.354V116H182.354V115ZM182.354 33.1152V32.1152H181.354V33.1152H182.354ZM204.692 33.1152H205.692V32.1152H204.692V33.1152ZM182.401 11.9482C182.401 8.49429 183.358 6.07883 185.109 4.50761C186.88 2.91795 189.636 2.03516 193.56 2.03516V0.0351562C189.378 0.0351562 186.055 0.971207 183.773 3.01924C181.471 5.08572 180.401 8.1268 180.401 11.9482H182.401ZM193.56 2.03516C197.483 2.03516 200.239 2.91795 202.01 4.50761C203.761 6.07883 204.718 8.49429 204.718 11.9482H206.718C206.718 8.1268 205.648 5.08572 203.346 3.01924C201.064 0.971207 197.741 0.0351562 193.56 0.0351562V2.03516ZM204.718 11.9482C204.718 15.2071 203.762 17.6306 201.952 19.354L203.331 20.8023C205.623 18.6194 206.718 15.623 206.718 11.9482H204.718ZM201.952 19.3536C200.207 21.0135 197.474 21.9346 193.56 21.9346V23.9346C197.75 23.9346 201.072 22.9514 203.331 20.8027L201.952 19.3536ZM193.56 21.9346C189.637 21.9346 186.882 21.0463 185.111 19.446C183.36 17.8631 182.401 15.4286 182.401 11.9482H180.401C180.401 15.7921 181.469 18.8508 183.77 20.9299C186.052 22.9917 189.376 23.9346 193.56 23.9346V21.9346ZM204.692 114H182.354V116H204.692V114ZM183.354 115V33.1152H181.354V115H183.354ZM182.354 34.1152H204.692V32.1152H182.354V34.1152ZM203.692 33.1152V115H205.692V33.1152H203.692ZM250.542 115V116H251.542V115H250.542ZM228.203 115H227.203V116H228.203V115ZM228.203 1.03516V0.0351562H227.203V1.03516H228.203ZM250.542 1.03516H251.542V0.0351562H250.542V1.03516ZM250.542 114H228.203V116H250.542V114ZM229.203 115V1.03516H227.203V115H229.203ZM228.203 2.03516H250.542V0.0351562H228.203V2.03516ZM249.542 1.03516V115H251.542V1.03516H249.542ZM296.392 115V116H297.392V115H296.392ZM274.053 115H273.053V116H274.053V115ZM274.053 1.03516V0.0351562H273.053V1.03516H274.053ZM296.392 1.03516H297.392V0.0351562H296.392V1.03516ZM296.392 114H274.053V116H296.392V114ZM275.053 115V1.03516H273.053V115H275.053ZM274.053 2.03516H296.392V0.0351562H274.053V2.03516ZM295.392 1.03516V115H297.392V1.03516H295.392ZM368.242 109.873L367.642 109.073L367.639 109.075L368.242 109.873ZM326.86 115.22L327.054 114.239L327.043 114.237L326.86 115.22ZM315.068 111.704H314.068V112.365L314.676 112.624L315.068 111.704ZM315.068 93.2471L315.494 92.3423L314.068 91.6713V93.2471H315.068ZM329.058 98.1543L328.811 99.1234L328.813 99.1239L329.058 98.1543ZM353.374 88.8525L352.651 89.5438L352.659 89.5518L352.667 89.5596L353.374 88.8525ZM347.808 85.1172L347.335 85.9982L347.341 86.0016L347.347 86.0049L347.808 85.1172ZM337.261 80.21L337.65 79.2887L337.647 79.2875L337.261 80.21ZM323.345 72.8857L322.736 73.6794L322.743 73.6842L323.345 72.8857ZM316.899 65.1953L315.987 65.6057L315.992 65.6149L315.996 65.6241L316.899 65.1953ZM323.345 37.583L323.921 38.4006L323.922 38.3996L323.345 37.583ZM376.152 38.0225L377.075 38.4083L377.447 37.518L376.571 37.1142L376.152 38.0225ZM369.414 54.1357L369.02 55.0549L369.947 55.4523L370.337 54.5215L369.414 54.1357ZM340.264 58.6768L339.691 59.4969L339.7 59.503L340.264 58.6768ZM354.253 65.1953L354.628 64.2683L354.625 64.2673L354.253 65.1953ZM376.031 90.6836C376.031 98.8199 373.21 104.897 367.642 109.073L368.842 110.673C374.993 106.06 378.031 99.3442 378.031 90.6836H376.031ZM367.639 109.075C362.078 113.281 353.618 115.465 342.095 115.465V117.465C353.813 117.465 362.785 115.254 368.845 110.671L367.639 109.075ZM342.095 115.465C336.18 115.465 331.17 115.052 327.054 114.239L326.666 116.201C330.949 117.047 336.096 117.465 342.095 117.465V115.465ZM327.043 114.237C322.911 113.468 319.051 112.316 315.461 110.784L314.676 112.624C318.41 114.217 322.411 115.409 326.677 116.203L327.043 114.237ZM316.068 111.704V93.2471H314.068V111.704H316.068ZM314.643 94.1519C318.859 96.136 323.583 97.7918 328.811 99.1234L329.304 97.1852C324.18 95.8801 319.579 94.2643 315.494 92.3423L314.643 94.1519ZM328.813 99.1239C334.091 100.456 338.766 101.132 342.827 101.132V99.1318C338.978 99.1318 334.474 98.4896 329.302 97.1847L328.813 99.1239ZM342.827 101.132C346.944 101.132 350.194 100.542 352.446 99.2397C354.782 97.8888 355.985 95.8008 355.985 93.1006H353.985C353.985 95.0879 353.162 96.5155 351.445 97.5084C349.645 98.5493 346.816 99.1318 342.827 99.1318V101.132ZM355.985 93.1006C355.985 91.1227 355.373 89.4368 354.081 88.1454L352.667 89.5596C353.524 90.4167 353.985 91.5629 353.985 93.1006H355.985ZM354.097 88.1613C352.905 86.916 350.93 85.6099 348.268 84.2294L347.347 86.0049C349.958 87.3589 351.694 88.543 352.651 89.5438L354.097 88.1613ZM348.281 84.2362C345.605 82.7995 342.058 81.1501 337.65 79.2887L336.872 81.1312C341.252 82.9808 344.736 84.6029 347.335 85.9982L348.281 84.2362ZM337.647 79.2875C331.373 76.6611 326.825 74.2578 323.947 72.0873L322.743 73.6842C325.821 76.0058 330.551 78.4854 336.875 81.1324L337.647 79.2875ZM323.953 72.0921C321.129 69.9273 319.092 67.4831 317.803 64.7666L315.996 65.6241C317.441 68.6693 319.701 71.352 322.736 73.6794L323.953 72.0921ZM317.811 64.785C316.567 62.0187 315.922 58.5787 315.922 54.4287H313.922C313.922 58.7748 314.596 62.5125 315.987 65.6057L317.811 64.785ZM315.922 54.4287C315.922 47.4559 318.589 42.1556 323.921 38.4006L322.769 36.7654C316.87 40.9206 313.922 46.8508 313.922 54.4287H315.922ZM323.922 38.3996C329.353 34.5606 337.127 32.5771 347.368 32.5771V30.5771C336.906 30.5771 328.665 32.5976 322.767 36.7664L323.922 38.3996ZM347.368 32.5771C357.081 32.5771 366.533 34.6917 375.734 38.9307L376.571 37.1142C367.119 32.7594 357.382 30.5771 347.368 30.5771V32.5771ZM375.23 37.6367L368.491 53.7499L370.337 54.5215L377.075 38.4083L375.23 37.6367ZM369.808 53.2166C365.682 51.4481 361.817 49.9954 358.216 48.8607L357.615 50.7682C361.142 51.8796 364.943 53.3077 369.02 55.0549L369.808 53.2166ZM358.216 48.8607C354.555 47.7072 350.816 47.1299 347.002 47.1299V49.1299C350.61 49.1299 354.147 49.6756 357.615 50.7682L358.216 48.8607ZM347.002 47.1299C343.649 47.1299 340.977 47.5776 339.111 48.5869C338.162 49.0997 337.401 49.7687 336.881 50.6126C336.359 51.4592 336.114 52.4258 336.114 53.4766H338.114C338.114 52.7451 338.281 52.1522 338.583 51.6621C338.887 51.1694 339.362 50.7245 340.062 50.3462C341.491 49.5733 343.763 49.1299 347.002 49.1299V47.1299ZM336.114 53.4766C336.114 55.8953 337.407 57.9032 339.691 59.4969L340.836 57.8566C338.921 56.5207 338.114 55.0617 338.114 53.4766H336.114ZM339.7 59.503C341.953 61.0392 346.719 63.2492 353.88 66.1234L354.625 64.2673C347.431 61.3797 342.871 59.244 340.827 57.8505L339.7 59.503ZM353.878 66.1223C360.25 68.7002 364.84 71.0782 367.713 73.2447L368.918 71.6479C365.833 69.3222 361.049 66.8662 354.628 64.2683L353.878 66.1223ZM367.713 73.2447C370.584 75.4092 372.67 77.8782 374.007 80.6451L375.808 79.7748C374.313 76.6824 372.004 73.9755 368.918 71.6479L367.713 73.2447ZM374.007 80.6451C375.343 83.41 376.031 86.7455 376.031 90.6836H378.031C378.031 86.5163 377.303 82.8693 375.808 79.7748L374.007 80.6451Z" fill="url(#paint0_linear)" fill-opacity="0.5"/>
<defs>
<linearGradient id="paint0_linear" x1="197" y1="-45" x2="197" y2="115" gradientUnits="userSpaceOnUse">
<stop stop-color="#FD73A8"/>
<stop offset="0.46875" stop-color="#EF6FF0" stop-opacity="0.88"/>
<stop offset="1" stop-color="#829DFF" stop-opacity="0"/>
</linearGradient>
</defs>
</svg>
