<svg width="668" height="151" viewBox="0 0 668 151" fill="none" xmlns="http://www.w3.org/2000/svg">
<path d="M51.7852 114V115H52.7852V114H51.7852ZM29.0801 114H28.0801V115H29.0801V114ZM29.0801 25.8164H30.0801V24.8164H29.0801V25.8164ZM0.00292969 25.8164H-0.99707V26.8164H0.00292969V25.8164ZM0.00292969 6.91992V5.91992H-0.99707V6.91992H0.00292969ZM80.8623 6.91992H81.8623V5.91992H80.8623V6.91992ZM80.8623 25.8164V26.8164H81.8623V25.8164H80.8623ZM51.7852 25.8164V24.8164H50.7852V25.8164H51.7852ZM51.7852 113H29.0801V115H51.7852V113ZM30.0801 114V25.8164H28.0801V114H30.0801ZM29.0801 24.8164H0.00292969V26.8164H29.0801V24.8164ZM1.00293 25.8164V6.91992H-0.99707V25.8164H1.00293ZM0.00292969 7.91992H80.8623V5.91992H0.00292969V7.91992ZM79.8623 6.91992V25.8164H81.8623V6.91992H79.8623ZM80.8623 24.8164H51.7852V26.8164H80.8623V24.8164ZM50.7852 25.8164V114H52.7852V25.8164H50.7852ZM117.337 91.2949L116.493 91.8312L116.497 91.8382L117.337 91.2949ZM143.191 91.3682L142.347 90.8319L142.346 90.8345L143.191 91.3682ZM117.337 54.6738L118.172 55.2238L118.175 55.2192L117.337 54.6738ZM109.28 110.338L108.78 111.204L108.786 111.207L109.28 110.338ZM112.382 72.9111C112.382 81.0959 113.708 87.4474 116.493 91.8312L118.181 90.7587C115.693 86.8417 114.382 80.9373 114.382 72.9111H112.382ZM116.497 91.8382C119.409 96.3373 124.113 98.5205 130.374 98.5205V96.5205C124.623 96.5205 120.636 94.5534 118.176 90.7517L116.497 91.8382ZM130.374 98.5205C136.584 98.5205 141.223 96.3626 144.037 91.9018L142.346 90.8345C139.984 94.5769 136.078 96.5205 130.374 96.5205V98.5205ZM144.035 91.9044C146.821 87.5199 148.146 81.1433 148.146 72.9111H146.146C146.146 80.9876 144.835 86.9156 142.347 90.8319L144.035 91.9044ZM148.146 72.9111C148.146 64.7292 146.821 58.4197 144.03 54.1285L142.353 55.2192C144.835 59.0335 146.146 64.8822 146.146 72.9111H148.146ZM144.03 54.1285C141.163 49.7218 136.478 47.5947 130.228 47.5947V49.5947C135.989 49.5947 139.947 51.5204 142.353 55.2192L144.03 54.1285ZM130.228 47.5947C124.022 47.5947 119.364 49.7243 116.499 54.1285L118.175 55.2192C120.583 51.5179 124.519 49.5947 130.228 49.5947V47.5947ZM116.502 54.1238C113.706 58.3695 112.382 64.6832 112.382 72.9111H114.382C114.382 64.8304 115.695 58.986 118.172 55.2238L116.502 54.1238ZM168.998 72.9111C168.998 86.0648 165.532 96.2179 158.721 103.503L160.182 104.869C167.432 97.1141 170.998 86.4176 170.998 72.9111H168.998ZM158.721 103.503C151.919 110.777 142.418 114.465 130.081 114.465V116.465C142.841 116.465 152.921 112.633 160.182 104.869L158.721 103.503ZM130.081 114.465C122.369 114.465 115.61 112.79 109.775 109.469L108.786 111.207C114.962 114.722 122.071 116.465 130.081 116.465V114.465ZM109.78 109.472C103.951 106.107 99.4706 101.3 96.3319 95.0225L94.5431 95.9169C97.8497 102.53 102.598 107.635 108.78 111.204L109.78 109.472ZM96.3319 95.0225C93.1908 88.7403 91.6035 81.3793 91.6035 72.9111H89.6035C89.6035 81.6305 91.2388 89.3085 94.5431 95.9169L96.3319 95.0225ZM91.6035 72.9111C91.6035 59.7049 95.0466 49.5794 101.805 42.3952L100.349 41.0247C93.1428 48.6843 89.6035 59.3596 89.6035 72.9111H91.6035ZM101.805 42.3952C108.555 35.2207 118.079 31.5771 130.521 31.5771V29.5771C117.669 29.5771 107.564 33.3555 100.349 41.0247L101.805 42.3952ZM130.521 31.5771C138.233 31.5771 144.991 33.2523 150.827 36.5732L151.816 34.835C145.64 31.32 138.531 29.5771 130.521 29.5771V31.5771ZM150.827 36.5732C156.655 39.8901 161.134 44.6484 164.271 50.8757L166.057 49.9758C162.749 43.4102 157.999 38.3541 151.816 34.835L150.827 36.5732ZM164.271 50.8757C167.411 57.1074 168.998 64.4427 168.998 72.9111H170.998C170.998 64.192 169.363 56.5371 166.057 49.9758L164.271 50.8757ZM259.72 32.1152H260.72V31.1152H259.72V32.1152ZM259.72 43.4678L259.969 44.4363L260.72 44.2432V43.4678H259.72ZM246.902 46.7637L246.653 45.7952L245.315 46.1392L246.06 47.3027L246.902 46.7637ZM241.189 79.6494L241.814 80.4303L241.815 80.4297L241.189 79.6494ZM215.701 86.9736L215.647 87.9722L215.674 87.9736H215.701V86.9736ZM211.673 86.7539L211.562 87.7478L211.59 87.7509L211.618 87.7524L211.673 86.7539ZM208.377 86.3877L208.487 85.3938L208.088 85.3494L207.769 85.5938L208.377 86.3877ZM251.663 102.867L251.028 103.639L251.032 103.643L251.663 102.867ZM246.756 142.125L246.206 141.29L246.204 141.291L246.756 142.125ZM186.185 144.029L186.736 143.195L186.735 143.194L186.185 144.029ZM181.79 114.952L181.056 114.273L181.79 114.952ZM195.34 107.848L195.571 108.821L198.528 108.118L195.731 106.928L195.34 107.848ZM189.334 103.087L188.538 103.692L188.545 103.701L189.334 103.087ZM189.48 88.2188L190.231 88.8798L190.238 88.871L189.48 88.2188ZM197.317 82.0664L197.823 82.9293L199.527 81.9312L197.714 81.1483L197.317 82.0664ZM187.063 73.1309L186.209 73.6499L186.213 73.6572L187.063 73.1309ZM225.076 31.2363L224.937 32.2266L224.945 32.2278L224.954 32.2288L225.076 31.2363ZM231.155 32.1152L230.938 33.0914L231.046 33.1152H231.155V32.1152ZM200.906 132.823L200.392 133.681L200.398 133.684L200.906 132.823ZM200.613 117.882L200.049 117.057L200.04 117.062L200.032 117.068L200.613 117.882ZM207.645 69.4688L206.854 70.0807L206.861 70.0898L207.645 69.4688ZM258.72 32.1152V43.4678H260.72V32.1152H258.72ZM259.471 42.4993L246.653 45.7952L247.151 47.7322L259.969 44.4363L259.471 42.4993ZM246.06 47.3027C248.296 50.7965 249.418 54.7095 249.418 59.0684H251.418C251.418 54.3452 250.196 50.055 247.745 46.2246L246.06 47.3027ZM249.418 59.0684C249.418 67.5935 246.45 74.1507 240.564 78.8691L241.815 80.4297C248.233 75.2848 251.418 68.1213 251.418 59.0684H249.418ZM240.565 78.8685C234.697 83.5629 226.451 85.9736 215.701 85.9736V87.9736C226.729 87.9736 235.475 85.5016 241.814 80.4303L240.565 78.8685ZM215.756 85.9751L211.727 85.7554L211.618 87.7524L215.647 87.9722L215.756 85.9751ZM211.783 85.76L208.487 85.3938L208.267 87.3816L211.562 87.7478L211.783 85.76ZM207.769 85.5938C205.319 87.4704 203.935 89.6875 203.935 92.2471H205.935C205.935 90.5098 206.845 88.8206 208.985 87.1816L207.769 85.5938ZM203.935 92.2471C203.935 93.2854 204.272 94.2207 204.941 95.0089C205.594 95.7786 206.523 96.3624 207.645 96.8033C209.873 97.6787 213.101 98.0811 217.239 98.0811V96.0811C213.174 96.0811 210.25 95.6777 208.376 94.9418C207.448 94.577 206.838 94.1538 206.466 93.715C206.11 93.2947 205.935 92.8201 205.935 92.2471H203.935ZM217.239 98.0811H231.155V96.0811H217.239V98.0811ZM231.155 98.0811C240.015 98.0811 246.588 99.9855 251.028 103.639L252.299 102.095C247.364 98.034 240.264 96.0811 231.155 96.0811V98.0811ZM251.032 103.643C255.483 107.268 257.768 112.616 257.768 119.859H259.768C259.768 112.162 257.316 106.181 252.295 102.092L251.032 103.643ZM257.768 119.859C257.768 129.093 253.933 136.201 246.206 141.29L247.306 142.96C255.594 137.502 259.768 129.767 259.768 119.859H257.768ZM246.204 141.291C238.477 146.411 227.253 149.035 212.405 149.035V151.035C227.441 151.035 239.117 148.386 247.308 142.959L246.204 141.291ZM212.405 149.035C201.072 149.035 192.558 147.045 186.736 143.195L185.633 144.863C191.92 149.021 200.887 151.035 212.405 151.035V149.035ZM186.735 143.194C181.009 139.424 178.176 134.171 178.176 127.33H176.176C176.176 134.845 179.348 140.725 185.635 144.864L186.735 143.194ZM178.176 127.33C178.176 122.626 179.635 118.75 182.524 115.632L181.056 114.273C177.793 117.795 176.176 122.171 176.176 127.33H178.176ZM182.524 115.632C185.425 112.5 189.741 110.207 195.571 108.821L195.109 106.875C189.025 108.321 184.307 110.764 181.056 114.273L182.524 115.632ZM195.731 106.928C193.61 106.025 191.74 104.552 190.123 102.473L188.545 103.701C190.346 106.016 192.479 107.717 194.948 108.768L195.731 106.928ZM190.13 102.481C188.535 100.385 187.771 98.2252 187.771 95.9824H185.771C185.771 98.7201 186.715 101.297 188.538 103.692L190.13 102.481ZM187.771 95.9824C187.771 93.0636 188.608 90.7218 190.231 88.8798L188.73 87.5577C186.74 89.8172 185.771 92.6512 185.771 95.9824H187.771ZM190.238 88.871C191.949 86.8826 194.463 84.8974 197.823 82.9293L196.812 81.2035C193.336 83.2393 190.625 85.3557 188.722 87.5665L190.238 88.871ZM197.714 81.1483C193.611 79.3766 190.349 76.5378 187.914 72.6045L186.213 73.6572C188.856 77.927 192.43 81.0453 196.921 82.9845L197.714 81.1483ZM187.918 72.6119C185.537 68.6904 184.328 64.0421 184.328 58.6289H182.328C182.328 64.3486 183.609 69.3682 186.209 73.6498L187.918 72.6119ZM184.328 58.6289C184.328 49.9307 187.144 43.3253 192.687 38.6669L191.401 37.1358C185.323 42.243 182.328 49.4561 182.328 58.6289H184.328ZM192.687 38.6669C198.255 33.9883 206.293 31.5771 216.946 31.5771V29.5771C206.018 29.5771 197.454 32.0488 191.401 37.1358L192.687 38.6669ZM216.946 31.5771C219.181 31.5771 221.842 31.7914 224.937 32.2266L225.215 30.2461C222.06 29.8024 219.301 29.5771 216.946 29.5771V31.5771ZM224.954 32.2288C228.142 32.6212 230.116 32.9087 230.938 33.0914L231.372 31.139C230.437 30.9312 228.358 30.6327 225.198 30.2438L224.954 32.2288ZM231.155 33.1152H259.72V31.1152H231.155V33.1152ZM195.512 125.572C195.512 129.044 197.201 131.766 200.392 133.681L201.421 131.966C198.752 130.365 197.512 128.253 197.512 125.572H195.512ZM200.398 133.684C203.592 135.569 207.945 136.46 213.357 136.46V134.46C208.125 134.46 204.177 133.593 201.415 131.962L200.398 133.684ZM213.357 136.46C221.437 136.46 227.883 135.355 232.616 133.064L231.745 131.264C227.397 133.368 221.294 134.46 213.357 134.46V136.46ZM232.616 133.064C237.37 130.764 239.992 127.475 239.992 123.155H237.992C237.992 126.453 236.073 129.17 231.745 131.264L232.616 133.064ZM239.992 123.155C239.992 121.471 239.623 119.975 238.83 118.721C238.035 117.463 236.859 116.519 235.364 115.867L234.564 117.7C235.755 118.219 236.592 118.923 237.14 119.789C237.69 120.659 237.992 121.764 237.992 123.155H239.992ZM235.364 115.867C232.483 114.61 228.162 114.025 222.513 114.025V116.025C228.093 116.025 232.073 116.613 234.564 117.7L235.364 115.867ZM222.513 114.025H210.94V116.025H222.513V114.025ZM210.94 114.025C206.682 114.025 203.031 115.016 200.049 117.057L201.178 118.707C203.762 116.939 206.996 116.025 210.94 116.025V114.025ZM200.032 117.068C197.053 119.196 195.512 122.054 195.512 125.572H197.512C197.512 122.743 198.705 120.474 201.195 118.696L200.032 117.068ZM203.642 58.9219C203.642 63.5082 204.675 67.2642 206.854 70.0806L208.435 68.8569C206.61 66.4975 205.642 63.2223 205.642 58.9219H203.642ZM206.861 70.0898C209.149 72.9772 212.577 74.3506 216.946 74.3506V72.3506C213.015 72.3506 210.242 71.136 208.428 68.8477L206.861 70.0898ZM216.946 74.3506C221.358 74.3506 224.777 72.9806 226.973 70.0712L225.377 68.8663C223.666 71.1327 220.933 72.3506 216.946 72.3506V74.3506ZM226.973 70.0712C229.098 67.2556 230.104 63.5034 230.104 58.9219H228.104C228.104 63.2271 227.158 66.5061 225.377 68.8663L226.973 70.0712ZM230.104 58.9219C230.104 53.8786 229.072 49.9103 226.838 47.1908C224.572 44.4337 221.211 43.127 216.946 43.127V45.127C220.787 45.127 223.505 46.286 225.292 48.4606C227.11 50.6727 228.104 54.1019 228.104 58.9219H230.104ZM216.946 43.127C212.637 43.127 209.24 44.4311 206.949 47.1862C204.687 49.9061 203.642 53.8764 203.642 58.9219H205.642C205.642 54.1041 206.647 50.6769 208.487 48.4651C210.297 46.2886 213.052 45.127 216.946 45.127V43.127ZM296.048 51.0117L296.791 51.6814L296.796 51.6753L296.048 51.0117ZM291.434 63.7559L290.436 63.6852L290.36 64.7559H291.434V63.7559ZM322.781 63.7559V64.7559H323.799L323.781 63.7382L322.781 63.7559ZM318.46 51.0117L317.724 51.6885L317.729 51.6945L318.46 51.0117ZM278.543 41.8564L277.805 41.1812L277.805 41.1814L278.543 41.8564ZM343.729 78.624V79.624H344.729V78.624H343.729ZM290.921 78.624V77.624H289.882L289.922 78.6625L290.921 78.624ZM339.114 92.3936H340.114V90.8195L338.689 91.4883L339.114 92.3936ZM339.114 109.679L339.561 110.573L340.114 110.297V109.679H339.114ZM326.59 114L326.385 113.021L326.375 113.023L326.59 114ZM307.181 45.4707C302.212 45.4707 298.208 47.0698 295.3 50.3481L296.796 51.6753C299.259 48.899 302.677 47.4707 307.181 47.4707V45.4707ZM295.305 50.3421C292.423 53.5391 290.837 58.0284 290.436 63.6852L292.431 63.8265C292.812 58.4482 294.302 54.4414 296.791 51.6814L295.305 50.3421ZM291.434 64.7559H322.781V62.7559H291.434V64.7559ZM323.781 63.7382C323.681 58.0618 322.195 53.5439 319.191 50.329L317.729 51.6945C320.292 54.4366 321.687 58.4148 321.781 63.7736L323.781 63.7382ZM319.196 50.3349C316.194 47.0696 312.15 45.4707 307.181 45.4707V47.4707C311.684 47.4707 315.159 48.8992 317.724 51.6885L319.196 50.3349ZM310.33 114.465C297.335 114.465 287.31 110.884 280.122 103.838L278.722 105.266C286.377 112.77 296.958 116.465 310.33 116.465V114.465ZM280.122 103.838C272.942 96.7997 269.289 86.7847 269.289 73.6436H267.289C267.289 87.1626 271.058 97.7531 278.722 105.266L280.122 103.838ZM269.289 73.6436C269.289 60.0828 272.666 49.7608 279.281 42.5315L277.805 41.1814C270.748 48.8935 267.289 59.7629 267.289 73.6436H269.289ZM279.281 42.5317C285.94 35.2579 295.148 31.5771 307.034 31.5771V29.5771C294.702 29.5771 284.915 33.4159 277.805 41.1812L279.281 42.5317ZM307.034 31.5771C318.41 31.5771 327.134 34.811 333.346 41.164L334.776 39.7657C328.097 32.9351 318.803 29.5771 307.034 29.5771V31.5771ZM333.346 41.164C339.564 47.5234 342.729 56.3529 342.729 67.7842H344.729C344.729 55.9732 341.448 46.5899 334.776 39.7657L333.346 41.164ZM342.729 67.7842V78.624H344.729V67.7842H342.729ZM343.729 77.624H290.921V79.624H343.729V77.624ZM289.922 78.6625C290.173 85.19 292.114 90.4083 295.849 94.1944L297.273 92.79C293.975 89.4472 292.157 84.7534 291.92 78.5856L289.922 78.6625ZM295.849 94.1944C299.599 97.9972 304.816 99.8389 311.355 99.8389V97.8389C305.2 97.8389 300.553 96.1161 297.273 92.79L295.849 94.1944ZM311.355 99.8389C316.357 99.8389 321.096 99.3189 325.572 98.2746L325.117 96.3269C320.804 97.3334 316.218 97.8389 311.355 97.8389V99.8389ZM325.572 98.2746C330.045 97.2309 334.701 95.5697 339.539 93.2988L338.689 91.4883C333.957 93.7096 329.434 95.3199 325.117 96.3269L325.572 98.2746ZM338.114 92.3936V109.679H340.114V92.3936H338.114ZM338.667 108.784C334.841 110.697 330.748 112.11 326.385 113.021L326.794 114.979C331.319 114.034 335.575 112.566 339.561 110.573L338.667 108.784ZM326.375 113.023C322.024 113.98 316.681 114.465 310.33 114.465V116.465C316.772 116.465 322.269 115.974 326.805 114.977L326.375 113.023ZM410.452 95.1035H411.452V93.7433L410.154 94.149L410.452 95.1035ZM410.452 111.729L410.861 112.642L411.452 112.378V111.729H410.452ZM370.389 108.727L369.643 109.392L369.65 109.401L370.389 108.727ZM364.31 48.8877H365.31V47.8877H364.31V48.8877ZM353.616 48.8877H352.616V49.8877H353.616V48.8877ZM353.616 39.4395L353.097 38.5847L352.616 38.8767V39.4395H353.616ZM365.921 31.9688L366.44 32.8235L366.737 32.6434L366.858 32.3181L365.921 31.9688ZM372.366 14.6836V13.6836H371.672L371.429 14.3342L372.366 14.6836ZM386.648 14.6836H387.648V13.6836H386.648V14.6836ZM386.648 32.1152H385.648V33.1152H386.648V32.1152ZM409.573 32.1152H410.573V31.1152H409.573V32.1152ZM409.573 48.8877V49.8877H410.573V48.8877H409.573ZM386.648 48.8877V47.8877H385.648V48.8877H386.648ZM389.285 95.3965L388.633 96.1543L388.643 96.163L389.285 95.3965ZM396.39 98.667C400.432 98.667 405.226 97.7844 410.75 96.058L410.154 94.149C404.741 95.8406 400.159 96.667 396.39 96.667V98.667ZM409.452 95.1035V111.729H411.452V95.1035H409.452ZM410.044 110.817C404.641 113.234 397.953 114.465 389.944 114.465V116.465C398.147 116.465 405.131 115.206 410.861 112.642L410.044 110.817ZM389.944 114.465C381.157 114.465 374.965 112.256 371.127 108.052L369.65 109.401C374.015 114.182 380.861 116.465 389.944 116.465V114.465ZM371.135 108.061C367.309 103.774 365.31 97.2689 365.31 88.3652H363.31C363.31 97.528 365.363 104.597 369.643 109.392L371.135 108.061ZM365.31 88.3652V48.8877H363.31V88.3652H365.31ZM364.31 47.8877H353.616V49.8877H364.31V47.8877ZM354.616 48.8877V39.4395H352.616V48.8877H354.616ZM354.135 40.2942L366.44 32.8235L365.402 31.114L353.097 38.5847L354.135 40.2942ZM366.858 32.3181L373.303 15.033L371.429 14.3342L364.984 31.6194L366.858 32.3181ZM372.366 15.6836H386.648V13.6836H372.366V15.6836ZM385.648 14.6836V32.1152H387.648V14.6836H385.648ZM386.648 33.1152H409.573V31.1152H386.648V33.1152ZM408.573 32.1152V48.8877H410.573V32.1152H408.573ZM409.573 47.8877H386.648V49.8877H409.573V47.8877ZM385.648 48.8877V88.3652H387.648V48.8877H385.648ZM385.648 88.3652C385.648 91.7178 386.581 94.3878 388.633 96.1543L389.938 94.6387C388.473 93.3778 387.648 91.3603 387.648 88.3652H385.648ZM388.643 96.163C390.67 97.8614 393.284 98.667 396.39 98.667V96.667C393.636 96.667 391.514 95.9589 389.927 94.63L388.643 96.163ZM502.664 114V115H503.664V114H502.664ZM480.325 114H479.325V115H480.325V114ZM449.417 114V115H450.417V114H449.417ZM427.078 114H426.078V115H427.078V114ZM427.078 0.0351562V-0.964844H426.078V0.0351562H427.078ZM449.417 0.0351562H450.417V-0.964844H449.417V0.0351562ZM448.904 35.9971L449.901 36.0746L449.902 36.0614L449.903 36.0481L448.904 35.9971ZM448.392 42.5889L447.395 42.5113L447.311 43.5889H448.392V42.5889ZM449.563 42.5889V43.5889H450.119L450.413 43.117L449.563 42.5889ZM502.664 113H480.325V115H502.664V113ZM481.325 114V66.1729H479.325V114H481.325ZM481.325 66.1729C481.325 60.1698 480.214 55.4856 477.832 52.2826C475.408 49.0241 471.783 47.4482 467.142 47.4482V49.4482C471.289 49.4482 474.256 50.8265 476.227 53.4762C478.239 56.1814 479.325 60.3595 479.325 66.1729H481.325ZM467.142 47.4482C460.643 47.4482 455.767 49.6751 452.755 54.2723L454.428 55.3683C456.983 51.4694 461.14 49.4482 467.142 49.4482V47.4482ZM452.755 54.2723C449.807 58.7725 448.417 65.9034 448.417 75.4746H450.417C450.417 66.0029 451.81 59.3643 454.428 55.3683L452.755 54.2723ZM448.417 75.4746V114H450.417V75.4746H448.417ZM449.417 113H427.078V115H449.417V113ZM428.078 114V0.0351562H426.078V114H428.078ZM427.078 1.03516H449.417V-0.964844H427.078V1.03516ZM448.417 0.0351562V23.2529H450.417V0.0351562H448.417ZM448.417 23.2529C448.417 25.0286 448.248 29.2484 447.906 35.946L449.903 36.0481C450.244 29.3668 450.417 25.0905 450.417 23.2529H448.417ZM447.907 35.9195L447.395 42.5113L449.389 42.6664L449.901 36.0746L447.907 35.9195ZM448.392 43.5889H449.563V41.5889H448.392V43.5889ZM450.413 43.117C455.181 35.4509 462.739 31.5771 473.294 31.5771V29.5771C462.169 29.5771 453.907 33.7112 448.714 42.0607L450.413 43.117ZM473.294 31.5771C482.737 31.5771 489.738 34.114 494.473 39.0342L495.914 37.6474C490.688 32.2161 483.089 29.5771 473.294 29.5771V31.5771ZM494.473 39.0342C499.219 43.9667 501.664 51.1055 501.664 60.6064H503.664C503.664 50.7715 501.128 43.0665 495.914 37.6474L494.473 39.0342ZM501.664 60.6064V114H503.664V60.6064H501.664ZM548.44 51.0117L549.183 51.6814L549.188 51.6753L548.44 51.0117ZM543.826 63.7559L542.829 63.6852L542.753 64.7559H543.826V63.7559ZM575.174 63.7559V64.7559H576.192L576.174 63.7382L575.174 63.7559ZM570.853 51.0117L570.116 51.6885L570.122 51.6945L570.853 51.0117ZM530.936 41.8564L530.198 41.1812L530.198 41.1814L530.936 41.8564ZM596.121 78.624V79.624H597.121V78.624H596.121ZM543.313 78.624V77.624H542.274L542.314 78.6625L543.313 78.624ZM591.507 92.3936H592.507V90.8195L591.082 91.4883L591.507 92.3936ZM591.507 109.679L591.954 110.573L592.507 110.297V109.679H591.507ZM578.982 114L578.778 113.021L578.768 113.023L578.982 114ZM559.573 45.4707C554.605 45.4707 550.601 47.0698 547.692 50.3481L549.188 51.6753C551.651 48.899 555.069 47.4707 559.573 47.4707V45.4707ZM547.698 50.3421C544.815 53.5391 543.229 58.0284 542.829 63.6852L544.824 63.8265C545.204 58.4482 546.695 54.4414 549.183 51.6814L547.698 50.3421ZM543.826 64.7559H575.174V62.7559H543.826V64.7559ZM576.174 63.7382C576.073 58.0618 574.587 53.5439 571.583 50.329L570.122 51.6945C572.684 54.4366 574.079 58.4148 574.174 63.7736L576.174 63.7382ZM571.589 50.3349C568.587 47.0696 564.543 45.4707 559.573 45.4707V47.4707C564.076 47.4707 567.552 48.8992 570.116 51.6885L571.589 50.3349ZM562.723 114.465C549.727 114.465 539.703 110.884 532.514 103.838L531.114 105.266C538.77 112.77 549.351 116.465 562.723 116.465V114.465ZM532.514 103.838C525.335 96.7997 521.682 86.7847 521.682 73.6436H519.682C519.682 87.1626 523.45 97.7531 531.114 105.266L532.514 103.838ZM521.682 73.6436C521.682 60.0828 525.058 49.7608 531.673 42.5315L530.198 41.1814C523.141 48.8935 519.682 59.7629 519.682 73.6436H521.682ZM531.673 42.5317C538.333 35.2579 547.541 31.5771 559.427 31.5771V29.5771C547.094 29.5771 537.308 33.4159 530.198 41.1812L531.673 42.5317ZM559.427 31.5771C570.803 31.5771 579.526 34.811 585.738 41.164L587.168 39.7657C580.489 32.9351 571.195 29.5771 559.427 29.5771V31.5771ZM585.738 41.164C591.956 47.5234 595.121 56.3529 595.121 67.7842H597.121C597.121 55.9732 593.841 46.5899 587.168 39.7657L585.738 41.164ZM595.121 67.7842V78.624H597.121V67.7842H595.121ZM596.121 77.624H543.313V79.624H596.121V77.624ZM542.314 78.6625C542.565 85.19 544.507 90.4083 548.241 94.1944L549.665 92.79C546.368 89.4472 544.55 84.7534 544.313 78.5856L542.314 78.6625ZM548.241 94.1944C551.992 97.9972 557.208 99.8389 563.748 99.8389V97.8389C557.592 97.8389 552.946 96.1161 549.665 92.79L548.241 94.1944ZM563.748 99.8389C568.749 99.8389 573.489 99.3189 577.965 98.2746L577.51 96.3269C573.197 97.3334 568.61 97.8389 563.748 97.8389V99.8389ZM577.965 98.2746C582.438 97.2309 587.094 95.5697 591.932 93.2988L591.082 91.4883C586.35 93.7096 581.826 95.3199 577.51 96.3269L577.965 98.2746ZM590.507 92.3936V109.679H592.507V92.3936H590.507ZM591.06 108.784C587.233 110.697 583.141 112.11 578.778 113.021L579.187 114.979C583.711 114.034 587.968 112.566 591.954 110.573L591.06 108.784ZM578.768 113.023C574.417 113.98 569.074 114.465 562.723 114.465V116.465C569.165 116.465 574.661 115.974 579.197 114.977L578.768 113.023ZM667.532 31.2363L668.529 31.3165L668.599 30.4467L667.747 30.2596L667.532 31.2363ZM665.848 52.1836L665.587 53.149L666.748 53.4628L666.844 52.2638L665.848 52.1836ZM642.557 56.9443L641.882 56.2064L641.877 56.2106L642.557 56.9443ZM636.624 114V115H637.624V114H636.624ZM614.285 114H613.285V115H614.285V114ZM614.285 32.1152V31.1152H613.285V32.1152H614.285ZM631.204 32.1152L632.177 31.8824L631.993 31.1152H631.204V32.1152ZM634.5 45.8848L633.527 46.1176L633.711 46.8848H634.5V45.8848ZM635.599 45.8848V46.8848H636.188L636.474 46.3688L635.599 45.8848ZM645.853 34.8252L646.396 35.6645L646.398 35.663L645.853 34.8252ZM659.988 31.5771C662.974 31.5771 665.411 31.7945 667.318 32.2131L667.747 30.2596C665.65 29.7992 663.057 29.5771 659.988 29.5771V31.5771ZM666.535 31.1562L664.851 52.1034L666.844 52.2638L668.529 31.3165L666.535 31.1562ZM666.109 51.2182C664.191 50.7001 661.901 50.4512 659.256 50.4512V52.4512C661.787 52.4512 663.891 52.6906 665.587 53.149L666.109 51.2182ZM659.256 50.4512C651.957 50.4512 646.122 52.3284 641.882 56.2064L643.232 57.6822C646.999 54.2361 652.296 52.4512 659.256 52.4512V50.4512ZM641.877 56.2106C637.673 60.1031 635.624 65.5217 635.624 72.3252H637.624C637.624 65.9451 639.53 61.1098 643.236 57.6781L641.877 56.2106ZM635.624 72.3252V114H637.624V72.3252H635.624ZM636.624 113H614.285V115H636.624V113ZM615.285 114V32.1152H613.285V114H615.285ZM614.285 33.1152H631.204V31.1152H614.285V33.1152ZM630.232 32.348L633.527 46.1176L635.473 45.652L632.177 31.8824L630.232 32.348ZM634.5 46.8848H635.599V44.8848H634.5V46.8848ZM636.474 46.3688C638.935 41.9192 642.241 38.3561 646.396 35.6645L645.309 33.9859C640.871 36.8607 637.34 40.6707 634.724 45.4007L636.474 46.3688ZM646.398 35.663C650.586 32.9344 655.108 31.5771 659.988 31.5771V29.5771C654.712 29.5771 649.811 31.0519 645.307 33.9874L646.398 35.663Z" fill="url(#paint0_linear_85_15)" fill-opacity="0.5"/>
<defs>
<linearGradient id="paint0_linear_85_15" x1="337.5" y1="-46" x2="337.5" y2="138" gradientUnits="userSpaceOnUse">
<stop offset="0.494792" stop-color="#F75276"/>
<stop offset="0.994792" stop-color="#829DFF" stop-opacity="0"/>
</linearGradient>
</defs>
</svg>
