<svg width="670" height="153" viewBox="0 0 670 153" fill="none" xmlns="http://www.w3.org/2000/svg">
<path d="M52.7852 115V116H53.7852V115H52.7852ZM30.0801 115H29.0801V116H30.0801V115ZM30.0801 26.8164H31.0801V25.8164H30.0801V26.8164ZM1.00293 26.8164H0.00292969V27.8164H1.00293V26.8164ZM1.00293 7.91992V6.91992H0.00292969V7.91992H1.00293ZM81.8623 7.91992H82.8623V6.91992H81.8623V7.91992ZM81.8623 26.8164V27.8164H82.8623V26.8164H81.8623ZM52.7852 26.8164V25.8164H51.7852V26.8164H52.7852ZM52.7852 114H30.0801V116H52.7852V114ZM31.0801 115V26.8164H29.0801V115H31.0801ZM30.0801 25.8164H1.00293V27.8164H30.0801V25.8164ZM2.00293 26.8164V7.91992H0.00292969V26.8164H2.00293ZM1.00293 8.91992H81.8623V6.91992H1.00293V8.91992ZM80.8623 7.91992V26.8164H82.8623V7.91992H80.8623ZM81.8623 25.8164H52.7852V27.8164H81.8623V25.8164ZM51.7852 26.8164V115H53.7852V26.8164H51.7852ZM118.337 92.2949L117.493 92.8312L117.497 92.8382L118.337 92.2949ZM144.191 92.3682L143.347 91.8319L143.346 91.8345L144.191 92.3682ZM118.337 55.6738L119.172 56.2238L119.175 56.2192L118.337 55.6738ZM110.28 111.338L109.78 112.204L109.786 112.207L110.28 111.338ZM113.382 73.9111C113.382 82.0959 114.708 88.4474 117.493 92.8312L119.181 91.7587C116.693 87.8417 115.382 81.9373 115.382 73.9111H113.382ZM117.497 92.8382C120.409 97.3373 125.113 99.5205 131.374 99.5205V97.5205C125.623 97.5205 121.636 95.5534 119.176 91.7517L117.497 92.8382ZM131.374 99.5205C137.584 99.5205 142.223 97.3626 145.037 92.9018L143.346 91.8345C140.984 95.5769 137.078 97.5205 131.374 97.5205V99.5205ZM145.035 92.9044C147.821 88.5199 149.146 82.1433 149.146 73.9111H147.146C147.146 81.9876 145.835 87.9156 143.347 91.8319L145.035 92.9044ZM149.146 73.9111C149.146 65.7292 147.821 59.4197 145.03 55.1285L143.353 56.2192C145.835 60.0335 147.146 65.8822 147.146 73.9111H149.146ZM145.03 55.1285C142.163 50.7218 137.478 48.5947 131.228 48.5947V50.5947C136.989 50.5947 140.947 52.5204 143.353 56.2192L145.03 55.1285ZM131.228 48.5947C125.022 48.5947 120.364 50.7243 117.499 55.1285L119.175 56.2192C121.583 52.5179 125.519 50.5947 131.228 50.5947V48.5947ZM117.502 55.1238C114.706 59.3695 113.382 65.6832 113.382 73.9111H115.382C115.382 65.8304 116.695 59.986 119.172 56.2238L117.502 55.1238ZM169.998 73.9111C169.998 87.0648 166.532 97.2179 159.721 104.503L161.182 105.869C168.432 98.1141 171.998 87.4176 171.998 73.9111H169.998ZM159.721 104.503C152.919 111.777 143.418 115.465 131.081 115.465V117.465C143.841 117.465 153.921 113.633 161.182 105.869L159.721 104.503ZM131.081 115.465C123.369 115.465 116.61 113.79 110.775 110.469L109.786 112.207C115.962 115.722 123.071 117.465 131.081 117.465V115.465ZM110.78 110.472C104.951 107.107 100.471 102.3 97.3319 96.0225L95.5431 96.9169C98.8497 103.53 103.598 108.635 109.78 112.204L110.78 110.472ZM97.3319 96.0225C94.1908 89.7403 92.6035 82.3793 92.6035 73.9111H90.6035C90.6035 82.6305 92.2388 90.3085 95.5431 96.9169L97.3319 96.0225ZM92.6035 73.9111C92.6035 60.7049 96.0466 50.5794 102.805 43.3952L101.349 42.0247C94.1428 49.6843 90.6035 60.3596 90.6035 73.9111H92.6035ZM102.805 43.3952C109.555 36.2207 119.079 32.5771 131.521 32.5771V30.5771C118.669 30.5771 108.564 34.3555 101.349 42.0247L102.805 43.3952ZM131.521 32.5771C139.233 32.5771 145.991 34.2523 151.827 37.5732L152.816 35.835C146.64 32.32 139.531 30.5771 131.521 30.5771V32.5771ZM151.827 37.5732C157.655 40.8901 162.134 45.6484 165.271 51.8757L167.057 50.9758C163.749 44.4102 158.999 39.3541 152.816 35.835L151.827 37.5732ZM165.271 51.8757C168.411 58.1074 169.998 65.4427 169.998 73.9111H171.998C171.998 65.192 170.363 57.5371 167.057 50.9758L165.271 51.8757ZM260.72 33.1152H261.72V32.1152H260.72V33.1152ZM260.72 44.4678L260.969 45.4363L261.72 45.2432V44.4678H260.72ZM247.902 47.7637L247.653 46.7952L246.315 47.1392L247.06 48.3027L247.902 47.7637ZM242.189 80.6494L242.814 81.4303L242.815 81.4297L242.189 80.6494ZM216.701 87.9736L216.647 88.9722L216.674 88.9736H216.701V87.9736ZM212.673 87.7539L212.562 88.7478L212.59 88.7509L212.618 88.7524L212.673 87.7539ZM209.377 87.3877L209.487 86.3938L209.088 86.3494L208.769 86.5938L209.377 87.3877ZM252.663 103.867L252.028 104.639L252.032 104.643L252.663 103.867ZM247.756 143.125L247.206 142.29L247.204 142.291L247.756 143.125ZM187.185 145.029L187.736 144.195L187.735 144.194L187.185 145.029ZM182.79 115.952L182.056 115.273L182.79 115.952ZM196.34 108.848L196.571 109.821L199.528 109.118L196.731 107.928L196.34 108.848ZM190.334 104.087L189.538 104.692L189.545 104.701L190.334 104.087ZM190.48 89.2188L191.231 89.8798L191.238 89.871L190.48 89.2188ZM198.317 83.0664L198.823 83.9293L200.527 82.9312L198.714 82.1483L198.317 83.0664ZM188.063 74.1309L187.209 74.6499L187.213 74.6572L188.063 74.1309ZM226.076 32.2363L225.937 33.2266L225.945 33.2278L225.954 33.2288L226.076 32.2363ZM232.155 33.1152L231.938 34.0914L232.046 34.1152H232.155V33.1152ZM201.906 133.823L201.392 134.681L201.398 134.684L201.906 133.823ZM201.613 118.882L201.049 118.057L201.04 118.062L201.032 118.068L201.613 118.882ZM208.645 70.4688L207.854 71.0807L207.861 71.0898L208.645 70.4688ZM259.72 33.1152V44.4678H261.72V33.1152H259.72ZM260.471 43.4993L247.653 46.7952L248.151 48.7322L260.969 45.4363L260.471 43.4993ZM247.06 48.3027C249.296 51.7965 250.418 55.7095 250.418 60.0684H252.418C252.418 55.3452 251.196 51.055 248.745 47.2246L247.06 48.3027ZM250.418 60.0684C250.418 68.5935 247.45 75.1507 241.564 79.8691L242.815 81.4297C249.233 76.2848 252.418 69.1213 252.418 60.0684H250.418ZM241.565 79.8685C235.697 84.5629 227.451 86.9736 216.701 86.9736V88.9736C227.729 88.9736 236.475 86.5016 242.814 81.4303L241.565 79.8685ZM216.756 86.9751L212.727 86.7554L212.618 88.7524L216.647 88.9722L216.756 86.9751ZM212.783 86.76L209.487 86.3938L209.267 88.3816L212.562 88.7478L212.783 86.76ZM208.769 86.5938C206.319 88.4704 204.935 90.6875 204.935 93.2471H206.935C206.935 91.5098 207.845 89.8206 209.985 88.1816L208.769 86.5938ZM204.935 93.2471C204.935 94.2854 205.272 95.2207 205.941 96.0089C206.594 96.7786 207.523 97.3624 208.645 97.8033C210.873 98.6787 214.101 99.0811 218.239 99.0811V97.0811C214.174 97.0811 211.25 96.6777 209.376 95.9418C208.448 95.577 207.838 95.1538 207.466 94.715C207.11 94.2947 206.935 93.8201 206.935 93.2471H204.935ZM218.239 99.0811H232.155V97.0811H218.239V99.0811ZM232.155 99.0811C241.015 99.0811 247.588 100.986 252.028 104.639L253.299 103.095C248.364 99.034 241.264 97.0811 232.155 97.0811V99.0811ZM252.032 104.643C256.483 108.268 258.768 113.616 258.768 120.859H260.768C260.768 113.162 258.316 107.181 253.295 103.092L252.032 104.643ZM258.768 120.859C258.768 130.093 254.933 137.201 247.206 142.29L248.306 143.96C256.594 138.502 260.768 130.767 260.768 120.859H258.768ZM247.204 142.291C239.477 147.411 228.253 150.035 213.405 150.035V152.035C228.441 152.035 240.117 149.386 248.308 143.959L247.204 142.291ZM213.405 150.035C202.072 150.035 193.558 148.045 187.736 144.195L186.633 145.863C192.92 150.021 201.887 152.035 213.405 152.035V150.035ZM187.735 144.194C182.009 140.424 179.176 135.171 179.176 128.33H177.176C177.176 135.845 180.348 141.725 186.635 145.864L187.735 144.194ZM179.176 128.33C179.176 123.626 180.635 119.75 183.524 116.632L182.056 115.273C178.793 118.795 177.176 123.171 177.176 128.33H179.176ZM183.524 116.632C186.425 113.5 190.741 111.207 196.571 109.821L196.109 107.875C190.025 109.321 185.307 111.764 182.056 115.273L183.524 116.632ZM196.731 107.928C194.61 107.025 192.74 105.552 191.123 103.473L189.545 104.701C191.346 107.016 193.479 108.717 195.948 109.768L196.731 107.928ZM191.13 103.481C189.535 101.385 188.771 99.2252 188.771 96.9824H186.771C186.771 99.7201 187.715 102.297 189.538 104.692L191.13 103.481ZM188.771 96.9824C188.771 94.0636 189.608 91.7218 191.231 89.8798L189.73 88.5577C187.74 90.8172 186.771 93.6512 186.771 96.9824H188.771ZM191.238 89.871C192.949 87.8826 195.463 85.8974 198.823 83.9293L197.812 82.2035C194.336 84.2393 191.625 86.3557 189.722 88.5665L191.238 89.871ZM198.714 82.1483C194.611 80.3766 191.349 77.5378 188.914 73.6045L187.213 74.6572C189.856 78.927 193.43 82.0453 197.921 83.9845L198.714 82.1483ZM188.918 73.6119C186.537 69.6904 185.328 65.0421 185.328 59.6289H183.328C183.328 65.3486 184.609 70.3682 187.209 74.6498L188.918 73.6119ZM185.328 59.6289C185.328 50.9307 188.144 44.3253 193.687 39.6669L192.401 38.1358C186.323 43.243 183.328 50.4561 183.328 59.6289H185.328ZM193.687 39.6669C199.255 34.9883 207.293 32.5771 217.946 32.5771V30.5771C207.018 30.5771 198.454 33.0488 192.401 38.1358L193.687 39.6669ZM217.946 32.5771C220.181 32.5771 222.842 32.7914 225.937 33.2266L226.215 31.2461C223.06 30.8024 220.301 30.5771 217.946 30.5771V32.5771ZM225.954 33.2288C229.142 33.6212 231.116 33.9087 231.938 34.0914L232.372 32.139C231.437 31.9312 229.358 31.6327 226.198 31.2438L225.954 33.2288ZM232.155 34.1152H260.72V32.1152H232.155V34.1152ZM196.512 126.572C196.512 130.044 198.201 132.766 201.392 134.681L202.421 132.966C199.752 131.365 198.512 129.253 198.512 126.572H196.512ZM201.398 134.684C204.592 136.569 208.945 137.46 214.357 137.46V135.46C209.125 135.46 205.177 134.593 202.415 132.962L201.398 134.684ZM214.357 137.46C222.437 137.46 228.883 136.355 233.616 134.064L232.745 132.264C228.397 134.368 222.294 135.46 214.357 135.46V137.46ZM233.616 134.064C238.37 131.764 240.992 128.475 240.992 124.155H238.992C238.992 127.453 237.073 130.17 232.745 132.264L233.616 134.064ZM240.992 124.155C240.992 122.471 240.623 120.975 239.83 119.721C239.035 118.463 237.859 117.519 236.364 116.867L235.564 118.7C236.755 119.219 237.592 119.923 238.14 120.789C238.69 121.659 238.992 122.764 238.992 124.155H240.992ZM236.364 116.867C233.483 115.61 229.162 115.025 223.513 115.025V117.025C229.093 117.025 233.073 117.613 235.564 118.7L236.364 116.867ZM223.513 115.025H211.94V117.025H223.513V115.025ZM211.94 115.025C207.682 115.025 204.031 116.016 201.049 118.057L202.178 119.707C204.762 117.939 207.996 117.025 211.94 117.025V115.025ZM201.032 118.068C198.053 120.196 196.512 123.054 196.512 126.572H198.512C198.512 123.743 199.705 121.474 202.195 119.696L201.032 118.068ZM204.642 59.9219C204.642 64.5082 205.675 68.2642 207.854 71.0806L209.435 69.8569C207.61 67.4975 206.642 64.2223 206.642 59.9219H204.642ZM207.861 71.0898C210.149 73.9772 213.577 75.3506 217.946 75.3506V73.3506C214.015 73.3506 211.242 72.136 209.428 69.8477L207.861 71.0898ZM217.946 75.3506C222.358 75.3506 225.777 73.9806 227.973 71.0712L226.377 69.8663C224.666 72.1327 221.933 73.3506 217.946 73.3506V75.3506ZM227.973 71.0712C230.098 68.2556 231.104 64.5034 231.104 59.9219H229.104C229.104 64.2271 228.158 67.5061 226.377 69.8663L227.973 71.0712ZM231.104 59.9219C231.104 54.8786 230.072 50.9103 227.838 48.1908C225.572 45.4337 222.211 44.127 217.946 44.127V46.127C221.787 46.127 224.505 47.286 226.292 49.4606C228.11 51.6727 229.104 55.1019 229.104 59.9219H231.104ZM217.946 44.127C213.637 44.127 210.24 45.4311 207.949 48.1862C205.687 50.9061 204.642 54.8764 204.642 59.9219H206.642C206.642 55.1041 207.647 51.6769 209.487 49.4651C211.297 47.2886 214.052 46.127 217.946 46.127V44.127ZM297.048 52.0117L297.791 52.6814L297.796 52.6753L297.048 52.0117ZM292.434 64.7559L291.436 64.6852L291.36 65.7559H292.434V64.7559ZM323.781 64.7559V65.7559H324.799L324.781 64.7382L323.781 64.7559ZM319.46 52.0117L318.724 52.6885L318.729 52.6945L319.46 52.0117ZM279.543 42.8564L278.805 42.1812L278.805 42.1814L279.543 42.8564ZM344.729 79.624V80.624H345.729V79.624H344.729ZM291.921 79.624V78.624H290.882L290.922 79.6625L291.921 79.624ZM340.114 93.3936H341.114V91.8195L339.689 92.4883L340.114 93.3936ZM340.114 110.679L340.561 111.573L341.114 111.297V110.679H340.114ZM327.59 115L327.385 114.021L327.375 114.023L327.59 115ZM308.181 46.4707C303.212 46.4707 299.208 48.0698 296.3 51.3481L297.796 52.6753C300.259 49.899 303.677 48.4707 308.181 48.4707V46.4707ZM296.305 51.3421C293.423 54.5391 291.837 59.0284 291.436 64.6852L293.431 64.8265C293.812 59.4482 295.302 55.4414 297.791 52.6814L296.305 51.3421ZM292.434 65.7559H323.781V63.7559H292.434V65.7559ZM324.781 64.7382C324.681 59.0618 323.195 54.5439 320.191 51.329L318.729 52.6945C321.292 55.4366 322.687 59.4148 322.781 64.7736L324.781 64.7382ZM320.196 51.3349C317.194 48.0696 313.15 46.4707 308.181 46.4707V48.4707C312.684 48.4707 316.159 49.8992 318.724 52.6885L320.196 51.3349ZM311.33 115.465C298.335 115.465 288.31 111.884 281.122 104.838L279.722 106.266C287.377 113.77 297.958 117.465 311.33 117.465V115.465ZM281.122 104.838C273.942 97.7997 270.289 87.7847 270.289 74.6436H268.289C268.289 88.1626 272.058 98.7531 279.722 106.266L281.122 104.838ZM270.289 74.6436C270.289 61.0828 273.666 50.7608 280.281 43.5315L278.805 42.1814C271.748 49.8935 268.289 60.7629 268.289 74.6436H270.289ZM280.281 43.5317C286.94 36.2579 296.148 32.5771 308.034 32.5771V30.5771C295.702 30.5771 285.915 34.4159 278.805 42.1812L280.281 43.5317ZM308.034 32.5771C319.41 32.5771 328.134 35.811 334.346 42.164L335.776 40.7657C329.097 33.9351 319.803 30.5771 308.034 30.5771V32.5771ZM334.346 42.164C340.564 48.5234 343.729 57.3529 343.729 68.7842H345.729C345.729 56.9732 342.448 47.5899 335.776 40.7657L334.346 42.164ZM343.729 68.7842V79.624H345.729V68.7842H343.729ZM344.729 78.624H291.921V80.624H344.729V78.624ZM290.922 79.6625C291.173 86.19 293.114 91.4083 296.849 95.1944L298.273 93.79C294.975 90.4472 293.157 85.7534 292.92 79.5856L290.922 79.6625ZM296.849 95.1944C300.599 98.9972 305.816 100.839 312.355 100.839V98.8389C306.2 98.8389 301.553 97.1161 298.273 93.79L296.849 95.1944ZM312.355 100.839C317.357 100.839 322.096 100.319 326.572 99.2746L326.117 97.3269C321.804 98.3334 317.218 98.8389 312.355 98.8389V100.839ZM326.572 99.2746C331.045 98.2309 335.701 96.5697 340.539 94.2988L339.689 92.4883C334.957 94.7096 330.434 96.3199 326.117 97.3269L326.572 99.2746ZM339.114 93.3936V110.679H341.114V93.3936H339.114ZM339.667 109.784C335.841 111.697 331.748 113.11 327.385 114.021L327.794 115.979C332.319 115.034 336.575 113.566 340.561 111.573L339.667 109.784ZM327.375 114.023C323.024 114.98 317.681 115.465 311.33 115.465V117.465C317.772 117.465 323.269 116.974 327.805 115.977L327.375 114.023ZM411.452 96.1035H412.452V94.7433L411.154 95.149L411.452 96.1035ZM411.452 112.729L411.861 113.642L412.452 113.378V112.729H411.452ZM371.389 109.727L370.643 110.392L370.65 110.401L371.389 109.727ZM365.31 49.8877H366.31V48.8877H365.31V49.8877ZM354.616 49.8877H353.616V50.8877H354.616V49.8877ZM354.616 40.4395L354.097 39.5847L353.616 39.8767V40.4395H354.616ZM366.921 32.9688L367.44 33.8235L367.737 33.6434L367.858 33.3181L366.921 32.9688ZM373.366 15.6836V14.6836H372.672L372.429 15.3342L373.366 15.6836ZM387.648 15.6836H388.648V14.6836H387.648V15.6836ZM387.648 33.1152H386.648V34.1152H387.648V33.1152ZM410.573 33.1152H411.573V32.1152H410.573V33.1152ZM410.573 49.8877V50.8877H411.573V49.8877H410.573ZM387.648 49.8877V48.8877H386.648V49.8877H387.648ZM390.285 96.3965L389.633 97.1543L389.643 97.163L390.285 96.3965ZM397.39 99.667C401.432 99.667 406.226 98.7844 411.75 97.058L411.154 95.149C405.741 96.8406 401.159 97.667 397.39 97.667V99.667ZM410.452 96.1035V112.729H412.452V96.1035H410.452ZM411.044 111.817C405.641 114.234 398.953 115.465 390.944 115.465V117.465C399.147 117.465 406.131 116.206 411.861 113.642L411.044 111.817ZM390.944 115.465C382.157 115.465 375.965 113.256 372.127 109.052L370.65 110.401C375.015 115.182 381.861 117.465 390.944 117.465V115.465ZM372.135 109.061C368.309 104.774 366.31 98.2689 366.31 89.3652H364.31C364.31 98.528 366.363 105.597 370.643 110.392L372.135 109.061ZM366.31 89.3652V49.8877H364.31V89.3652H366.31ZM365.31 48.8877H354.616V50.8877H365.31V48.8877ZM355.616 49.8877V40.4395H353.616V49.8877H355.616ZM355.135 41.2942L367.44 33.8235L366.402 32.114L354.097 39.5847L355.135 41.2942ZM367.858 33.3181L374.303 16.033L372.429 15.3342L365.984 32.6194L367.858 33.3181ZM373.366 16.6836H387.648V14.6836H373.366V16.6836ZM386.648 15.6836V33.1152H388.648V15.6836H386.648ZM387.648 34.1152H410.573V32.1152H387.648V34.1152ZM409.573 33.1152V49.8877H411.573V33.1152H409.573ZM410.573 48.8877H387.648V50.8877H410.573V48.8877ZM386.648 49.8877V89.3652H388.648V49.8877H386.648ZM386.648 89.3652C386.648 92.7178 387.581 95.3878 389.633 97.1543L390.938 95.6387C389.473 94.3778 388.648 92.3603 388.648 89.3652H386.648ZM389.643 97.163C391.67 98.8614 394.284 99.667 397.39 99.667V97.667C394.636 97.667 392.514 96.9589 390.927 95.63L389.643 97.163ZM503.664 115V116H504.664V115H503.664ZM481.325 115H480.325V116H481.325V115ZM450.417 115V116H451.417V115H450.417ZM428.078 115H427.078V116H428.078V115ZM428.078 1.03516V0.0351562H427.078V1.03516H428.078ZM450.417 1.03516H451.417V0.0351562H450.417V1.03516ZM449.904 36.9971L450.901 37.0746L450.902 37.0614L450.903 37.0481L449.904 36.9971ZM449.392 43.5889L448.395 43.5113L448.311 44.5889H449.392V43.5889ZM450.563 43.5889V44.5889H451.119L451.413 44.117L450.563 43.5889ZM503.664 114H481.325V116H503.664V114ZM482.325 115V67.1729H480.325V115H482.325ZM482.325 67.1729C482.325 61.1698 481.214 56.4856 478.832 53.2826C476.408 50.0241 472.783 48.4482 468.142 48.4482V50.4482C472.289 50.4482 475.256 51.8265 477.227 54.4762C479.239 57.1814 480.325 61.3595 480.325 67.1729H482.325ZM468.142 48.4482C461.643 48.4482 456.767 50.6751 453.755 55.2723L455.428 56.3683C457.983 52.4694 462.14 50.4482 468.142 50.4482V48.4482ZM453.755 55.2723C450.807 59.7725 449.417 66.9034 449.417 76.4746H451.417C451.417 67.0029 452.81 60.3643 455.428 56.3683L453.755 55.2723ZM449.417 76.4746V115H451.417V76.4746H449.417ZM450.417 114H428.078V116H450.417V114ZM429.078 115V1.03516H427.078V115H429.078ZM428.078 2.03516H450.417V0.0351562H428.078V2.03516ZM449.417 1.03516V24.2529H451.417V1.03516H449.417ZM449.417 24.2529C449.417 26.0286 449.248 30.2484 448.906 36.946L450.903 37.0481C451.244 30.3668 451.417 26.0905 451.417 24.2529H449.417ZM448.907 36.9195L448.395 43.5113L450.389 43.6664L450.901 37.0746L448.907 36.9195ZM449.392 44.5889H450.563V42.5889H449.392V44.5889ZM451.413 44.117C456.181 36.4509 463.739 32.5771 474.294 32.5771V30.5771C463.169 30.5771 454.907 34.7112 449.714 43.0607L451.413 44.117ZM474.294 32.5771C483.737 32.5771 490.738 35.114 495.473 40.0342L496.914 38.6474C491.688 33.2161 484.089 30.5771 474.294 30.5771V32.5771ZM495.473 40.0342C500.219 44.9667 502.664 52.1055 502.664 61.6064H504.664C504.664 51.7715 502.128 44.0665 496.914 38.6474L495.473 40.0342ZM502.664 61.6064V115H504.664V61.6064H502.664ZM549.44 52.0117L550.183 52.6814L550.188 52.6753L549.44 52.0117ZM544.826 64.7559L543.829 64.6852L543.753 65.7559H544.826V64.7559ZM576.174 64.7559V65.7559H577.192L577.174 64.7382L576.174 64.7559ZM571.853 52.0117L571.116 52.6885L571.122 52.6945L571.853 52.0117ZM531.936 42.8564L531.198 42.1812L531.198 42.1814L531.936 42.8564ZM597.121 79.624V80.624H598.121V79.624H597.121ZM544.313 79.624V78.624H543.274L543.314 79.6625L544.313 79.624ZM592.507 93.3936H593.507V91.8195L592.082 92.4883L592.507 93.3936ZM592.507 110.679L592.954 111.573L593.507 111.297V110.679H592.507ZM579.982 115L579.778 114.021L579.768 114.023L579.982 115ZM560.573 46.4707C555.605 46.4707 551.601 48.0698 548.692 51.3481L550.188 52.6753C552.651 49.899 556.069 48.4707 560.573 48.4707V46.4707ZM548.698 51.3421C545.815 54.5391 544.229 59.0284 543.829 64.6852L545.824 64.8265C546.204 59.4482 547.695 55.4414 550.183 52.6814L548.698 51.3421ZM544.826 65.7559H576.174V63.7559H544.826V65.7559ZM577.174 64.7382C577.073 59.0618 575.587 54.5439 572.583 51.329L571.122 52.6945C573.684 55.4366 575.079 59.4148 575.174 64.7736L577.174 64.7382ZM572.589 51.3349C569.587 48.0696 565.543 46.4707 560.573 46.4707V48.4707C565.076 48.4707 568.552 49.8992 571.116 52.6885L572.589 51.3349ZM563.723 115.465C550.727 115.465 540.703 111.884 533.514 104.838L532.114 106.266C539.77 113.77 550.351 117.465 563.723 117.465V115.465ZM533.514 104.838C526.335 97.7997 522.682 87.7847 522.682 74.6436H520.682C520.682 88.1626 524.45 98.7531 532.114 106.266L533.514 104.838ZM522.682 74.6436C522.682 61.0828 526.058 50.7608 532.673 43.5315L531.198 42.1814C524.141 49.8935 520.682 60.7629 520.682 74.6436H522.682ZM532.673 43.5317C539.333 36.2579 548.541 32.5771 560.427 32.5771V30.5771C548.094 30.5771 538.308 34.4159 531.198 42.1812L532.673 43.5317ZM560.427 32.5771C571.803 32.5771 580.526 35.811 586.738 42.164L588.168 40.7657C581.489 33.9351 572.195 30.5771 560.427 30.5771V32.5771ZM586.738 42.164C592.956 48.5234 596.121 57.3529 596.121 68.7842H598.121C598.121 56.9732 594.841 47.5899 588.168 40.7657L586.738 42.164ZM596.121 68.7842V79.624H598.121V68.7842H596.121ZM597.121 78.624H544.313V80.624H597.121V78.624ZM543.314 79.6625C543.565 86.19 545.507 91.4083 549.241 95.1944L550.665 93.79C547.368 90.4472 545.55 85.7534 545.313 79.5856L543.314 79.6625ZM549.241 95.1944C552.992 98.9972 558.208 100.839 564.748 100.839V98.8389C558.592 98.8389 553.946 97.1161 550.665 93.79L549.241 95.1944ZM564.748 100.839C569.749 100.839 574.489 100.319 578.965 99.2746L578.51 97.3269C574.197 98.3334 569.61 98.8389 564.748 98.8389V100.839ZM578.965 99.2746C583.438 98.2309 588.094 96.5697 592.932 94.2988L592.082 92.4883C587.35 94.7096 582.826 96.3199 578.51 97.3269L578.965 99.2746ZM591.507 93.3936V110.679H593.507V93.3936H591.507ZM592.06 109.784C588.233 111.697 584.141 113.11 579.778 114.021L580.187 115.979C584.711 115.034 588.968 113.566 592.954 111.573L592.06 109.784ZM579.768 114.023C575.417 114.98 570.074 115.465 563.723 115.465V117.465C570.165 117.465 575.661 116.974 580.197 115.977L579.768 114.023ZM668.532 32.2363L669.529 32.3165L669.599 31.4467L668.747 31.2596L668.532 32.2363ZM666.848 53.1836L666.587 54.149L667.748 54.4628L667.844 53.2638L666.848 53.1836ZM643.557 57.9443L642.882 57.2064L642.877 57.2106L643.557 57.9443ZM637.624 115V116H638.624V115H637.624ZM615.285 115H614.285V116H615.285V115ZM615.285 33.1152V32.1152H614.285V33.1152H615.285ZM632.204 33.1152L633.177 32.8824L632.993 32.1152H632.204V33.1152ZM635.5 46.8848L634.527 47.1176L634.711 47.8848H635.5V46.8848ZM636.599 46.8848V47.8848H637.188L637.474 47.3688L636.599 46.8848ZM646.853 35.8252L647.396 36.6645L647.398 36.663L646.853 35.8252ZM660.988 32.5771C663.974 32.5771 666.411 32.7945 668.318 33.2131L668.747 31.2596C666.65 30.7992 664.057 30.5771 660.988 30.5771V32.5771ZM667.535 32.1562L665.851 53.1034L667.844 53.2638L669.529 32.3165L667.535 32.1562ZM667.109 52.2182C665.191 51.7001 662.901 51.4512 660.256 51.4512V53.4512C662.787 53.4512 664.891 53.6906 666.587 54.149L667.109 52.2182ZM660.256 51.4512C652.957 51.4512 647.122 53.3284 642.882 57.2064L644.232 58.6822C647.999 55.2361 653.296 53.4512 660.256 53.4512V51.4512ZM642.877 57.2106C638.673 61.1031 636.624 66.5217 636.624 73.3252H638.624C638.624 66.9451 640.53 62.1098 644.236 58.6781L642.877 57.2106ZM636.624 73.3252V115H638.624V73.3252H636.624ZM637.624 114H615.285V116H637.624V114ZM616.285 115V33.1152H614.285V115H616.285ZM615.285 34.1152H632.204V32.1152H615.285V34.1152ZM631.232 33.348L634.527 47.1176L636.473 46.652L633.177 32.8824L631.232 33.348ZM635.5 47.8848H636.599V45.8848H635.5V47.8848ZM637.474 47.3688C639.935 42.9192 643.241 39.3561 647.396 36.6645L646.309 34.9859C641.871 37.8607 638.34 41.6707 635.724 46.4007L637.474 47.3688ZM647.398 36.663C651.586 33.9344 656.108 32.5771 660.988 32.5771V30.5771C655.712 30.5771 650.811 32.0519 646.307 34.9874L647.398 36.663Z" fill="url(#paint0_linear)" fill-opacity="0.5"/>
<defs>
<linearGradient id="paint0_linear" x1="338.5" y1="-45" x2="338.5" y2="139" gradientUnits="userSpaceOnUse">
<stop stop-color="#FD73A8"/>
<stop offset="0.46875" stop-color="#EF6FF0" stop-opacity="0.88"/>
<stop offset="1" stop-color="#829DFF" stop-opacity="0"/>
</linearGradient>
</defs>
</svg>
