<svg width="471" height="118" viewBox="0 0 471 118" fill="none" xmlns="http://www.w3.org/2000/svg">
<path d="M119.773 115V116H120.551L120.743 115.247L119.773 115ZM93.9189 115L92.9506 115.25L93.1441 116H93.9189V115ZM79.417 58.75L80.3854 58.5003L80.3828 58.4909L79.417 58.75ZM76.6338 46.3721L75.6535 46.5697L75.6553 46.5785L76.6338 46.3721ZM74.4365 33.7012L75.4324 33.6106L73.4426 33.5907L74.4365 33.7012ZM72.2393 46.4453L73.2195 46.643L73.2198 46.6414L72.2393 46.4453ZM69.5293 58.8965L70.4978 59.1456L70.4983 59.1435L69.5293 58.8965ZM55.1006 115V116H55.8759L56.0691 115.249L55.1006 115ZM29.3193 115L28.3504 115.247L28.5424 116H29.3193V115ZM2 7.91992V6.91992H0.712837L1.03104 8.16713L2 7.91992ZM24.3389 7.91992L25.3125 7.69176L25.1316 6.91992H24.3389V7.91992ZM38.0352 66.3672L39.0115 66.1507L39.0088 66.139L38.0352 66.3672ZM43.2354 94.4189L42.2444 94.5535L44.2299 94.5236L43.2354 94.4189ZM45.2129 81.5283L44.2293 81.348L44.2281 81.3545L45.2129 81.5283ZM48.2158 67.9053L49.1768 68.1819L49.1804 68.1695L49.1836 68.157L48.2158 67.9053ZM63.8164 7.91992V6.91992H63.0432L62.8486 7.66822L63.8164 7.91992ZM85.2764 7.91992L86.2442 7.66822L86.0496 6.91992H85.2764V7.91992ZM100.877 67.9053L101.846 67.6586L101.845 67.6536L100.877 67.9053ZM105.784 94.4189L104.793 94.5535L106.776 94.5461L105.784 94.4189ZM108.128 80.21L109.11 80.3963L109.111 80.3948L108.128 80.21ZM111.058 66.3672L112.028 66.6097L112.03 66.602L112.032 66.5942L111.058 66.3672ZM124.681 7.91992V6.91992H123.887L123.707 7.69292L124.681 7.91992ZM147.02 7.91992L147.989 8.16651L148.306 6.91992H147.02V7.91992ZM119.773 114H93.9189V116H119.773V114ZM94.8873 114.75L80.3853 58.5004L78.4487 58.9996L92.9506 115.25L94.8873 114.75ZM80.3828 58.4909C79.854 56.5197 78.9317 52.4206 77.6123 46.1657L75.6553 46.5785C76.9726 52.8235 77.9058 56.9764 78.4511 59.0091L80.3828 58.4909ZM77.6141 46.1745C76.3428 39.867 75.622 35.6962 75.4324 33.6106L73.4406 33.7917C73.6417 36.003 74.3857 40.2795 75.6535 46.5696L77.6141 46.1745ZM73.4426 33.5907C73.1549 36.1808 72.4301 40.3921 71.2587 46.2492L73.2198 46.6414C74.3922 40.7798 75.1323 36.495 75.4304 33.8116L73.4426 33.5907ZM71.259 46.2476C70.0873 52.0573 69.1882 56.186 68.5603 58.6495L70.4983 59.1435C71.1399 56.6265 72.0475 52.4544 73.2195 46.643L71.259 46.2476ZM68.5608 58.6474L54.1321 114.751L56.0691 115.249L70.4978 59.1456L68.5608 58.6474ZM55.1006 114H29.3193V116H55.1006V114ZM30.2883 114.753L2.96896 7.67271L1.03104 8.16713L28.3504 115.247L30.2883 114.753ZM2 8.91992H24.3389V6.91992H2V8.91992ZM23.3652 8.14808L37.0615 66.5953L39.0088 66.139L25.3125 7.69176L23.3652 8.14808ZM37.0589 66.5836C39.4475 77.357 41.1751 86.679 42.2444 94.5535L44.2263 94.2844C43.1472 86.3386 41.4079 76.9594 39.0114 66.1507L37.0589 66.5836ZM44.2299 94.5236C44.519 91.7771 45.1729 87.509 46.1977 81.7021L44.2281 81.3545C43.2021 87.1687 42.5377 91.4944 42.2408 94.3143L44.2299 94.5236ZM46.1965 81.7086C47.2686 75.861 48.2626 71.3576 49.1768 68.1819L47.2548 67.6286C46.3136 70.8983 45.3057 75.4769 44.2293 81.348L46.1965 81.7086ZM49.1836 68.157L64.7842 8.17162L62.8486 7.66822L47.248 67.6536L49.1836 68.157ZM63.8164 8.91992H85.2764V6.91992H63.8164V8.91992ZM84.3086 8.17162L99.9091 68.157L101.845 67.6536L86.2442 7.66822L84.3086 8.17162ZM99.9079 68.152C100.583 70.8044 101.433 74.8795 102.457 80.3927L104.424 80.0273C103.397 74.5052 102.538 70.3772 101.846 67.6586L99.9079 68.152ZM102.457 80.3927C103.481 85.9001 104.259 90.6195 104.793 94.5535L106.775 94.2844C106.235 90.3082 105.451 85.555 104.424 80.0273L102.457 80.3927ZM106.776 94.5461C107.261 90.7645 108.038 86.0494 109.11 80.3963L107.145 80.0236C106.069 85.6987 105.284 90.4562 104.792 94.2918L106.776 94.5461ZM109.111 80.3948C110.183 74.6912 111.156 70.0984 112.028 66.6097L110.087 66.1246C109.202 69.6672 108.221 74.3029 107.145 80.0252L109.111 80.3948ZM112.032 66.5942L125.655 8.14692L123.707 7.69292L110.084 66.1402L112.032 66.5942ZM124.681 8.91992H147.02V6.91992H124.681V8.91992ZM146.05 7.67333L118.804 114.753L120.743 115.247L147.989 8.16651L146.05 7.67333ZM180.491 92.2949L179.647 92.8312L179.652 92.8382L180.491 92.2949ZM206.346 92.3682L205.502 91.8319L205.5 91.8345L206.346 92.3682ZM180.491 55.6738L181.326 56.2238L181.329 56.2192L180.491 55.6738ZM172.435 111.338L171.935 112.204L171.94 112.207L172.435 111.338ZM175.536 73.9111C175.536 82.0959 176.862 88.4474 179.647 92.8312L181.335 91.7587C178.847 87.8417 177.536 81.9373 177.536 73.9111H175.536ZM179.652 92.8382C182.563 97.3373 187.267 99.5205 193.528 99.5205V97.5205C187.778 97.5205 183.791 95.5534 181.331 91.7517L179.652 92.8382ZM193.528 99.5205C199.738 99.5205 204.377 97.3626 207.191 92.9018L205.5 91.8345C203.139 95.5769 199.232 97.5205 193.528 97.5205V99.5205ZM207.19 92.9044C209.975 88.5199 211.301 82.1433 211.301 73.9111H209.301C209.301 81.9876 207.99 87.9156 205.502 91.8319L207.19 92.9044ZM211.301 73.9111C211.301 65.7292 209.976 59.4197 207.184 55.1285L205.507 56.2192C207.989 60.0335 209.301 65.8822 209.301 73.9111H211.301ZM207.184 55.1285C204.317 50.7218 199.633 48.5947 193.382 48.5947V50.5947C199.143 50.5947 203.101 52.5204 205.507 56.2192L207.184 55.1285ZM193.382 48.5947C187.176 48.5947 182.518 50.7243 179.653 55.1285L181.329 56.2192C183.737 52.5179 187.673 50.5947 193.382 50.5947V48.5947ZM179.656 55.1238C176.86 59.3695 175.536 65.6832 175.536 73.9111H177.536C177.536 65.8304 178.849 59.986 181.326 56.2238L179.656 55.1238ZM232.152 73.9111C232.152 87.0648 228.687 97.2179 221.875 104.503L223.336 105.869C230.587 98.1141 234.152 87.4176 234.152 73.9111H232.152ZM221.875 104.503C215.073 111.777 205.573 115.465 193.235 115.465V117.465C205.996 117.465 216.075 113.633 223.336 105.869L221.875 104.503ZM193.235 115.465C185.523 115.465 178.765 113.79 172.929 110.469L171.94 112.207C178.116 115.722 185.225 117.465 193.235 117.465V115.465ZM172.934 110.472C167.105 107.107 162.625 102.3 159.486 96.0225L157.697 96.9169C161.004 103.53 165.752 108.635 171.935 112.204L172.934 110.472ZM159.486 96.0225C156.345 89.7403 154.758 82.3793 154.758 73.9111H152.758C152.758 82.6305 154.393 90.3085 157.697 96.9169L159.486 96.0225ZM154.758 73.9111C154.758 60.7049 158.201 50.5794 164.96 43.3952L163.503 42.0247C156.297 49.6843 152.758 60.3596 152.758 73.9111H154.758ZM164.96 43.3952C171.709 36.2207 181.233 32.5771 193.675 32.5771V30.5771C180.824 30.5771 170.718 34.3555 163.503 42.0247L164.96 43.3952ZM193.675 32.5771C201.387 32.5771 208.146 34.2523 213.981 37.5732L214.97 35.835C208.794 32.32 201.685 30.5771 193.675 30.5771V32.5771ZM213.981 37.5732C219.809 40.8901 224.288 45.6484 227.425 51.8757L229.211 50.9758C225.904 44.4102 221.154 39.3541 214.97 35.835L213.981 37.5732ZM227.425 51.8757C230.565 58.1074 232.152 65.4427 232.152 73.9111H234.152C234.152 65.192 232.517 57.5371 229.211 50.9758L227.425 51.8757ZM304.856 32.2363L305.853 32.3165L305.923 31.4467L305.071 31.2596L304.856 32.2363ZM303.172 53.1836L302.911 54.149L304.072 54.4628L304.169 53.2638L303.172 53.1836ZM279.881 57.9443L279.206 57.2064L279.201 57.2106L279.881 57.9443ZM273.948 115V116H274.948V115H273.948ZM251.609 115H250.609V116H251.609V115ZM251.609 33.1152V32.1152H250.609V33.1152H251.609ZM268.528 33.1152L269.501 32.8824L269.317 32.1152H268.528V33.1152ZM271.824 46.8848L270.852 47.1176L271.035 47.8848H271.824V46.8848ZM272.923 46.8848V47.8848H273.512L273.798 47.3688L272.923 46.8848ZM283.177 35.8252L283.72 36.6645L283.723 36.663L283.177 35.8252ZM297.312 32.5771C300.298 32.5771 302.735 32.7945 304.642 33.2131L305.071 31.2596C302.974 30.7992 300.381 30.5771 297.312 30.5771V32.5771ZM303.86 32.1562L302.175 53.1034L304.169 53.2638L305.853 32.3165L303.86 32.1562ZM303.433 52.2182C301.516 51.7001 299.225 51.4512 296.58 51.4512V53.4512C299.111 53.4512 301.215 53.6906 302.911 54.149L303.433 52.2182ZM296.58 51.4512C289.282 51.4512 283.446 53.3284 279.206 57.2064L280.556 58.6822C284.324 55.2361 289.621 53.4512 296.58 53.4512V51.4512ZM279.201 57.2106C274.998 61.1031 272.948 66.5217 272.948 73.3252H274.948C274.948 66.9451 276.854 62.1098 280.56 58.6781L279.201 57.2106ZM272.948 73.3252V115H274.948V73.3252H272.948ZM273.948 114H251.609V116H273.948V114ZM252.609 115V33.1152H250.609V115H252.609ZM251.609 34.1152H268.528V32.1152H251.609V34.1152ZM267.556 33.348L270.852 47.1176L272.797 46.652L269.501 32.8824L267.556 33.348ZM271.824 47.8848H272.923V45.8848H271.824V47.8848ZM273.798 47.3688C276.259 42.9192 279.565 39.3561 283.72 36.6645L282.633 34.9859C278.195 37.8607 274.664 41.6707 272.048 46.4007L273.798 47.3688ZM283.723 36.663C287.91 33.9344 292.433 32.5771 297.312 32.5771V30.5771C292.036 30.5771 287.135 32.0519 282.631 34.9874L283.723 36.663ZM341.185 70.4688V71.4688H341.672L341.972 71.0849L341.185 70.4688ZM350.926 58.0176L350.19 57.3403L350.163 57.3698L350.138 57.4014L350.926 58.0176ZM373.851 33.1152V32.1152H373.412L373.115 32.4379L373.851 33.1152ZM399.046 33.1152L399.784 33.7905L401.317 32.1152H399.046V33.1152ZM366.526 68.6377L365.789 67.9625L365.231 68.5718L365.724 69.2346L366.526 68.6377ZM401.023 115V116H403.014L401.826 114.403L401.023 115ZM375.242 115L374.427 115.579L374.726 116H375.242V115ZM351.658 81.8213L352.473 81.2419L351.859 80.3784L351.033 81.041L351.658 81.8213ZM342.063 89.5117L341.438 88.7314L341.063 89.0317V89.5117H342.063ZM342.063 115V116H343.063V115H342.063ZM319.725 115H318.725V116H319.725V115ZM319.725 1.03516V0.0351562H318.725V1.03516H319.725ZM342.063 1.03516H343.063V0.0351562H342.063V1.03516ZM342.063 51.8652L343.061 51.9281L343.063 51.8967V51.8652H342.063ZM340.892 70.4688L339.894 70.4059L339.827 71.4688H340.892V70.4688ZM341.972 71.0849L351.713 58.6338L350.138 57.4014L340.397 69.8526L341.972 71.0849ZM351.661 58.6949L374.586 33.7925L373.115 32.4379L350.19 57.3403L351.661 58.6949ZM373.851 34.1152H399.046V32.1152H373.851V34.1152ZM398.308 32.44L365.789 67.9625L367.264 69.3129L399.784 33.7905L398.308 32.44ZM365.724 69.2346L400.221 115.597L401.826 114.403L367.329 68.0407L365.724 69.2346ZM401.023 114H375.242V116H401.023V114ZM376.057 114.421L352.473 81.2419L350.843 82.4007L374.427 115.579L376.057 114.421ZM351.033 81.041L341.438 88.7314L342.689 90.292L352.284 82.6016L351.033 81.041ZM341.063 89.5117V115H343.063V89.5117H341.063ZM342.063 114H319.725V116H342.063V114ZM320.725 115V1.03516H318.725V115H320.725ZM319.725 2.03516H342.063V0.0351562H319.725V2.03516ZM341.063 1.03516V51.8652H343.063V1.03516H341.063ZM341.065 51.8024L339.894 70.4059L341.89 70.5316L343.061 51.9281L341.065 51.8024ZM340.892 71.4688H341.185V69.4688H340.892V71.4688ZM461.082 109.873L460.482 109.073L460.479 109.075L461.082 109.873ZM419.7 115.22L419.894 114.239L419.883 114.237L419.7 115.22ZM407.908 111.704H406.908V112.365L407.516 112.624L407.908 111.704ZM407.908 93.2471L408.334 92.3423L406.908 91.6713V93.2471H407.908ZM421.897 98.1543L421.651 99.1234L421.653 99.1239L421.897 98.1543ZM446.214 88.8525L445.491 89.5438L445.499 89.5518L445.507 89.5596L446.214 88.8525ZM440.647 85.1172L440.174 85.9982L440.181 86.0016L440.187 86.0049L440.647 85.1172ZM430.101 80.21L430.49 79.2887L430.487 79.2875L430.101 80.21ZM416.185 72.8857L415.576 73.6794L415.582 73.6842L416.185 72.8857ZM409.739 65.1953L408.827 65.6057L408.831 65.6149L408.836 65.6241L409.739 65.1953ZM416.185 37.583L416.76 38.4006L416.762 38.3996L416.185 37.583ZM468.992 38.0225L469.915 38.4083L470.287 37.518L469.411 37.1142L468.992 38.0225ZM462.254 54.1357L461.86 55.0549L462.787 55.4523L463.176 54.5215L462.254 54.1357ZM433.104 58.6768L432.531 59.4969L432.54 59.503L433.104 58.6768ZM447.093 65.1953L447.468 64.2683L447.465 64.2673L447.093 65.1953ZM468.871 90.6836C468.871 98.8199 466.05 104.897 460.482 109.073L461.682 110.673C467.833 106.06 470.871 99.3442 470.871 90.6836H468.871ZM460.479 109.075C454.918 113.281 446.458 115.465 434.935 115.465V117.465C446.653 117.465 455.625 115.254 461.685 110.671L460.479 109.075ZM434.935 115.465C429.019 115.465 424.01 115.052 419.894 114.239L419.506 116.201C423.789 117.047 428.936 117.465 434.935 117.465V115.465ZM419.883 114.237C415.751 113.468 411.891 112.316 408.301 110.784L407.516 112.624C411.25 114.217 415.251 115.409 419.517 116.203L419.883 114.237ZM408.908 111.704V93.2471H406.908V111.704H408.908ZM407.482 94.1519C411.699 96.136 416.423 97.7918 421.651 99.1234L422.144 97.1852C417.02 95.8801 412.418 94.2643 408.334 92.3423L407.482 94.1519ZM421.653 99.1239C426.931 100.456 431.606 101.132 435.667 101.132V99.1318C431.818 99.1318 427.313 98.4896 422.142 97.1847L421.653 99.1239ZM435.667 101.132C439.783 101.132 443.034 100.542 445.286 99.2397C447.622 97.8888 448.825 95.8008 448.825 93.1006H446.825C446.825 95.0879 446.002 96.5155 444.285 97.5084C442.485 98.5493 439.656 99.1318 435.667 99.1318V101.132ZM448.825 93.1006C448.825 91.1227 448.212 89.4368 446.921 88.1454L445.507 89.5596C446.364 90.4167 446.825 91.5629 446.825 93.1006H448.825ZM446.937 88.1613C445.745 86.916 443.77 85.6099 441.108 84.2294L440.187 86.0049C442.798 87.3589 444.534 88.543 445.491 89.5438L446.937 88.1613ZM441.121 84.2362C438.445 82.7995 434.898 81.1501 430.49 79.2887L429.712 81.1312C434.092 82.9808 437.576 84.6029 440.174 85.9982L441.121 84.2362ZM430.487 79.2875C424.212 76.6611 419.665 74.2578 416.787 72.0873L415.582 73.6842C418.661 76.0058 423.391 78.4854 429.714 81.1324L430.487 79.2875ZM416.793 72.0921C413.969 69.9273 411.932 67.4831 410.643 64.7666L408.836 65.6241C410.281 68.6693 412.54 71.352 415.576 73.6794L416.793 72.0921ZM410.651 64.785C409.406 62.0187 408.762 58.5787 408.762 54.4287H406.762C406.762 58.7748 407.435 62.5125 408.827 65.6057L410.651 64.785ZM408.762 54.4287C408.762 47.4559 411.429 42.1556 416.76 38.4006L415.609 36.7654C409.709 40.9206 406.762 46.8508 406.762 54.4287H408.762ZM416.762 38.3996C422.193 34.5606 429.967 32.5771 440.208 32.5771V30.5771C429.746 30.5771 421.505 32.5976 415.607 36.7664L416.762 38.3996ZM440.208 32.5771C449.921 32.5771 459.373 34.6917 468.574 38.9307L469.411 37.1142C459.959 32.7594 450.222 30.5771 440.208 30.5771V32.5771ZM468.07 37.6367L461.331 53.7499L463.176 54.5215L469.915 38.4083L468.07 37.6367ZM462.648 53.2166C458.521 51.4481 454.657 49.9954 451.055 48.8607L450.454 50.7682C453.982 51.8796 457.783 53.3077 461.86 55.0549L462.648 53.2166ZM451.055 48.8607C447.394 47.7072 443.655 47.1299 439.842 47.1299V49.1299C443.45 49.1299 446.986 49.6756 450.454 50.7682L451.055 48.8607ZM439.842 47.1299C436.488 47.1299 433.817 47.5776 431.95 48.5869C431.002 49.0997 430.241 49.7687 429.721 50.6126C429.199 51.4592 428.954 52.4258 428.954 53.4766H430.954C430.954 52.7451 431.121 52.1522 431.423 51.6621C431.727 51.1694 432.202 50.7245 432.902 50.3462C434.331 49.5733 436.603 49.1299 439.842 49.1299V47.1299ZM428.954 53.4766C428.954 55.8953 430.247 57.9032 432.531 59.4969L433.676 57.8566C431.761 56.5207 430.954 55.0617 430.954 53.4766H428.954ZM432.54 59.503C434.793 61.0392 439.559 63.2492 446.72 66.1234L447.465 64.2673C440.271 61.3797 435.711 59.244 433.667 57.8505L432.54 59.503ZM446.718 66.1223C453.089 68.7002 457.68 71.0782 460.553 73.2447L461.757 71.6479C458.673 69.3222 453.889 66.8662 447.468 64.2683L446.718 66.1223ZM460.553 73.2447C463.424 75.4092 465.509 77.8782 466.847 80.6451L468.647 79.7748C467.153 76.6824 464.844 73.9755 461.757 71.6479L460.553 73.2447ZM466.847 80.6451C468.183 83.41 468.871 86.7455 468.871 90.6836H470.871C470.871 86.5163 470.143 82.8693 468.647 79.7748L466.847 80.6451Z" fill="url(#paint0_linear)" fill-opacity="0.5"/>
<defs>
<linearGradient id="paint0_linear" x1="254.5" y1="-45" x2="254.5" y2="115" gradientUnits="userSpaceOnUse">
<stop stop-color="#FD73A8"/>
<stop offset="0.46875" stop-color="#EF6FF0" stop-opacity="0.88"/>
<stop offset="1" stop-color="#829DFF" stop-opacity="0"/>
</linearGradient>
</defs>
</svg>
