<svg width="468" height="116" viewBox="0 0 468 116" fill="none" xmlns="http://www.w3.org/2000/svg">
<path d="M117.773 114V115H118.551L118.743 114.247L117.773 114ZM91.9189 114L90.9506 114.25L91.1441 115H91.9189V114ZM77.417 57.75L78.3854 57.5003L78.3828 57.4909L77.417 57.75ZM74.6338 45.3721L73.6535 45.5697L73.6553 45.5785L74.6338 45.3721ZM72.4365 32.7012L73.4324 32.6106L71.4426 32.5907L72.4365 32.7012ZM70.2393 45.4453L71.2195 45.643L71.2198 45.6414L70.2393 45.4453ZM67.5293 57.8965L68.4978 58.1456L68.4983 58.1435L67.5293 57.8965ZM53.1006 114V115H53.8759L54.0691 114.249L53.1006 114ZM27.3193 114L26.3504 114.247L26.5424 115H27.3193V114ZM0 6.91992V5.91992H-1.28716L-0.968962 7.16713L0 6.91992ZM22.3389 6.91992L23.3125 6.69176L23.1316 5.91992H22.3389V6.91992ZM36.0352 65.3672L37.0115 65.1507L37.0088 65.139L36.0352 65.3672ZM41.2354 93.4189L40.2444 93.5535L42.2299 93.5236L41.2354 93.4189ZM43.2129 80.5283L42.2293 80.348L42.2281 80.3545L43.2129 80.5283ZM46.2158 66.9053L47.1768 67.1819L47.1804 67.1695L47.1836 67.157L46.2158 66.9053ZM61.8164 6.91992V5.91992H61.0432L60.8486 6.66822L61.8164 6.91992ZM83.2764 6.91992L84.2442 6.66822L84.0496 5.91992H83.2764V6.91992ZM98.877 66.9053L99.8461 66.6586L99.8448 66.6536L98.877 66.9053ZM103.784 93.4189L102.793 93.5535L104.776 93.5461L103.784 93.4189ZM106.128 79.21L107.11 79.3963L107.111 79.3948L106.128 79.21ZM109.058 65.3672L110.028 65.6097L110.03 65.602L110.032 65.5942L109.058 65.3672ZM122.681 6.91992V5.91992H121.887L121.707 6.69292L122.681 6.91992ZM145.02 6.91992L145.989 7.16651L146.306 5.91992H145.02V6.91992ZM117.773 113H91.9189V115H117.773V113ZM92.8873 113.75L78.3853 57.5004L76.4487 57.9996L90.9506 114.25L92.8873 113.75ZM78.3828 57.4909C77.854 55.5197 76.9317 51.4206 75.6123 45.1657L73.6553 45.5785C74.9726 51.8235 75.9058 55.9764 76.4511 58.0091L78.3828 57.4909ZM75.6141 45.1745C74.3428 38.867 73.622 34.6962 73.4324 32.6106L71.4406 32.7917C71.6417 35.003 72.3857 39.2795 73.6535 45.5696L75.6141 45.1745ZM71.4426 32.5907C71.1549 35.1808 70.4301 39.3921 69.2587 45.2492L71.2198 45.6414C72.3922 39.7798 73.1323 35.495 73.4304 32.8116L71.4426 32.5907ZM69.259 45.2476C68.0873 51.0573 67.1882 55.186 66.5603 57.6495L68.4983 58.1435C69.1399 55.6265 70.0475 51.4544 71.2195 45.643L69.259 45.2476ZM66.5608 57.6474L52.1321 113.751L54.0691 114.249L68.4978 58.1456L66.5608 57.6474ZM53.1006 113H27.3193V115H53.1006V113ZM28.2883 113.753L0.968962 6.67271L-0.968962 7.16713L26.3504 114.247L28.2883 113.753ZM0 7.91992H22.3389V5.91992H0V7.91992ZM21.3652 7.14808L35.0615 65.5953L37.0088 65.139L23.3125 6.69176L21.3652 7.14808ZM35.0589 65.5836C37.4475 76.357 39.1751 85.679 40.2444 93.5535L42.2263 93.2844C41.1472 85.3386 39.4079 75.9594 37.0114 65.1507L35.0589 65.5836ZM42.2299 93.5236C42.519 90.7771 43.1729 86.509 44.1977 80.7021L42.2281 80.3545C41.2021 86.1687 40.5377 90.4944 40.2408 93.3143L42.2299 93.5236ZM44.1965 80.7086C45.2686 74.861 46.2626 70.3576 47.1768 67.1819L45.2548 66.6286C44.3136 69.8983 43.3057 74.4769 42.2293 80.348L44.1965 80.7086ZM47.1836 67.157L62.7842 7.17162L60.8486 6.66822L45.248 66.6536L47.1836 67.157ZM61.8164 7.91992H83.2764V5.91992H61.8164V7.91992ZM82.3086 7.17162L97.9091 67.157L99.8448 66.6536L84.2442 6.66822L82.3086 7.17162ZM97.9079 67.152C98.583 69.8044 99.4327 73.8795 100.457 79.3927L102.424 79.0273C101.397 73.5052 100.538 69.3772 99.8461 66.6586L97.9079 67.152ZM100.457 79.3927C101.481 84.9001 102.259 89.6195 102.793 93.5535L104.775 93.2844C104.235 89.3082 103.451 84.555 102.424 79.0273L100.457 79.3927ZM104.776 93.5461C105.261 89.7645 106.038 85.0494 107.11 79.3963L105.145 79.0236C104.069 84.6987 103.284 89.4562 102.792 93.2918L104.776 93.5461ZM107.111 79.3948C108.183 73.6912 109.156 69.0984 110.028 65.6097L108.087 65.1246C107.202 68.6672 106.221 73.3029 105.145 79.0252L107.111 79.3948ZM110.032 65.5942L123.655 7.14692L121.707 6.69292L108.084 65.1402L110.032 65.5942ZM122.681 7.91992H145.02V5.91992H122.681V7.91992ZM144.05 6.67333L116.804 113.753L118.743 114.247L145.989 7.16651L144.05 6.67333ZM178.491 91.2949L177.647 91.8312L177.652 91.8382L178.491 91.2949ZM204.346 91.3682L203.502 90.8319L203.5 90.8345L204.346 91.3682ZM178.491 54.6738L179.326 55.2238L179.329 55.2192L178.491 54.6738ZM170.435 110.338L169.935 111.204L169.94 111.207L170.435 110.338ZM173.536 72.9111C173.536 81.0959 174.862 87.4474 177.647 91.8312L179.335 90.7587C176.847 86.8417 175.536 80.9373 175.536 72.9111H173.536ZM177.652 91.8382C180.563 96.3373 185.267 98.5205 191.528 98.5205V96.5205C185.778 96.5205 181.791 94.5534 179.331 90.7517L177.652 91.8382ZM191.528 98.5205C197.738 98.5205 202.377 96.3626 205.191 91.9018L203.5 90.8345C201.139 94.5769 197.232 96.5205 191.528 96.5205V98.5205ZM205.19 91.9044C207.975 87.5199 209.301 81.1433 209.301 72.9111H207.301C207.301 80.9876 205.99 86.9156 203.502 90.8319L205.19 91.9044ZM209.301 72.9111C209.301 64.7292 207.976 58.4197 205.184 54.1285L203.507 55.2192C205.989 59.0335 207.301 64.8822 207.301 72.9111H209.301ZM205.184 54.1285C202.317 49.7218 197.633 47.5947 191.382 47.5947V49.5947C197.143 49.5947 201.101 51.5204 203.507 55.2192L205.184 54.1285ZM191.382 47.5947C185.176 47.5947 180.518 49.7243 177.653 54.1285L179.329 55.2192C181.737 51.5179 185.673 49.5947 191.382 49.5947V47.5947ZM177.656 54.1238C174.86 58.3695 173.536 64.6832 173.536 72.9111H175.536C175.536 64.8304 176.849 58.986 179.326 55.2238L177.656 54.1238ZM230.152 72.9111C230.152 86.0648 226.687 96.2179 219.875 103.503L221.336 104.869C228.587 97.1141 232.152 86.4176 232.152 72.9111H230.152ZM219.875 103.503C213.073 110.777 203.573 114.465 191.235 114.465V116.465C203.996 116.465 214.075 112.633 221.336 104.869L219.875 103.503ZM191.235 114.465C183.523 114.465 176.765 112.79 170.929 109.469L169.94 111.207C176.116 114.722 183.225 116.465 191.235 116.465V114.465ZM170.934 109.472C165.105 106.107 160.625 101.3 157.486 95.0225L155.697 95.9169C159.004 102.53 163.752 107.635 169.935 111.204L170.934 109.472ZM157.486 95.0225C154.345 88.7403 152.758 81.3793 152.758 72.9111H150.758C150.758 81.6305 152.393 89.3085 155.697 95.9169L157.486 95.0225ZM152.758 72.9111C152.758 59.7049 156.201 49.5794 162.96 42.3952L161.503 41.0247C154.297 48.6843 150.758 59.3596 150.758 72.9111H152.758ZM162.96 42.3952C169.709 35.2207 179.233 31.5771 191.675 31.5771V29.5771C178.824 29.5771 168.718 33.3555 161.503 41.0247L162.96 42.3952ZM191.675 31.5771C199.387 31.5771 206.146 33.2523 211.981 36.5732L212.97 34.835C206.794 31.32 199.685 29.5771 191.675 29.5771V31.5771ZM211.981 36.5732C217.809 39.8901 222.288 44.6484 225.425 50.8757L227.211 49.9758C223.904 43.4102 219.154 38.3541 212.97 34.835L211.981 36.5732ZM225.425 50.8757C228.565 57.1074 230.152 64.4427 230.152 72.9111H232.152C232.152 64.192 230.517 56.5371 227.211 49.9758L225.425 50.8757ZM302.856 31.2363L303.853 31.3165L303.923 30.4467L303.071 30.2596L302.856 31.2363ZM301.172 52.1836L300.911 53.149L302.072 53.4628L302.169 52.2638L301.172 52.1836ZM277.881 56.9443L277.206 56.2064L277.201 56.2106L277.881 56.9443ZM271.948 114V115H272.948V114H271.948ZM249.609 114H248.609V115H249.609V114ZM249.609 32.1152V31.1152H248.609V32.1152H249.609ZM266.528 32.1152L267.501 31.8824L267.317 31.1152H266.528V32.1152ZM269.824 45.8848L268.852 46.1176L269.035 46.8848H269.824V45.8848ZM270.923 45.8848V46.8848H271.512L271.798 46.3688L270.923 45.8848ZM281.177 34.8252L281.72 35.6645L281.723 35.663L281.177 34.8252ZM295.312 31.5771C298.298 31.5771 300.735 31.7945 302.642 32.2131L303.071 30.2596C300.974 29.7992 298.381 29.5771 295.312 29.5771V31.5771ZM301.86 31.1562L300.175 52.1034L302.169 52.2638L303.853 31.3165L301.86 31.1562ZM301.433 51.2182C299.516 50.7001 297.225 50.4512 294.58 50.4512V52.4512C297.111 52.4512 299.215 52.6906 300.911 53.149L301.433 51.2182ZM294.58 50.4512C287.282 50.4512 281.446 52.3284 277.206 56.2064L278.556 57.6822C282.324 54.2361 287.621 52.4512 294.58 52.4512V50.4512ZM277.201 56.2106C272.998 60.1031 270.948 65.5217 270.948 72.3252H272.948C272.948 65.9451 274.854 61.1098 278.56 57.6781L277.201 56.2106ZM270.948 72.3252V114H272.948V72.3252H270.948ZM271.948 113H249.609V115H271.948V113ZM250.609 114V32.1152H248.609V114H250.609ZM249.609 33.1152H266.528V31.1152H249.609V33.1152ZM265.556 32.348L268.852 46.1176L270.797 45.652L267.501 31.8824L265.556 32.348ZM269.824 46.8848H270.923V44.8848H269.824V46.8848ZM271.798 46.3688C274.259 41.9192 277.565 38.3561 281.72 35.6645L280.633 33.9859C276.195 36.8607 272.664 40.6707 270.048 45.4007L271.798 46.3688ZM281.723 35.663C285.91 32.9344 290.433 31.5771 295.312 31.5771V29.5771C290.036 29.5771 285.135 31.0519 280.631 33.9874L281.723 35.663ZM339.185 69.4688V70.4688H339.672L339.972 70.0849L339.185 69.4688ZM348.926 57.0176L348.19 56.3403L348.163 56.3698L348.138 56.4014L348.926 57.0176ZM371.851 32.1152V31.1152H371.412L371.115 31.4379L371.851 32.1152ZM397.046 32.1152L397.784 32.7905L399.317 31.1152H397.046V32.1152ZM364.526 67.6377L363.789 66.9625L363.231 67.5718L363.724 68.2346L364.526 67.6377ZM399.023 114V115H401.014L399.826 113.403L399.023 114ZM373.242 114L372.427 114.579L372.726 115H373.242V114ZM349.658 80.8213L350.473 80.2419L349.859 79.3784L349.033 80.041L349.658 80.8213ZM340.063 88.5117L339.438 87.7314L339.063 88.0317V88.5117H340.063ZM340.063 114V115H341.063V114H340.063ZM317.725 114H316.725V115H317.725V114ZM317.725 0.0351562V-0.964844H316.725V0.0351562H317.725ZM340.063 0.0351562H341.063V-0.964844H340.063V0.0351562ZM340.063 50.8652L341.061 50.9281L341.063 50.8967V50.8652H340.063ZM338.892 69.4688L337.894 69.4059L337.827 70.4688H338.892V69.4688ZM339.972 70.0849L349.713 57.6338L348.138 56.4014L338.397 68.8526L339.972 70.0849ZM349.661 57.6949L372.586 32.7925L371.115 31.4379L348.19 56.3403L349.661 57.6949ZM371.851 33.1152H397.046V31.1152H371.851V33.1152ZM396.308 31.44L363.789 66.9625L365.264 68.3129L397.784 32.7905L396.308 31.44ZM363.724 68.2346L398.221 114.597L399.826 113.403L365.329 67.0407L363.724 68.2346ZM399.023 113H373.242V115H399.023V113ZM374.057 113.421L350.473 80.2419L348.843 81.4007L372.427 114.579L374.057 113.421ZM349.033 80.041L339.438 87.7314L340.689 89.292L350.284 81.6016L349.033 80.041ZM339.063 88.5117V114H341.063V88.5117H339.063ZM340.063 113H317.725V115H340.063V113ZM318.725 114V0.0351562H316.725V114H318.725ZM317.725 1.03516H340.063V-0.964844H317.725V1.03516ZM339.063 0.0351562V50.8652H341.063V0.0351562H339.063ZM339.065 50.8024L337.894 69.4059L339.89 69.5316L341.061 50.9281L339.065 50.8024ZM338.892 70.4688H339.185V68.4688H338.892V70.4688ZM459.082 108.873L458.482 108.073L458.479 108.075L459.082 108.873ZM417.7 114.22L417.894 113.239L417.883 113.237L417.7 114.22ZM405.908 110.704H404.908V111.365L405.516 111.624L405.908 110.704ZM405.908 92.2471L406.334 91.3423L404.908 90.6713V92.2471H405.908ZM419.897 97.1543L419.651 98.1234L419.653 98.1239L419.897 97.1543ZM444.214 87.8525L443.491 88.5438L443.499 88.5518L443.507 88.5596L444.214 87.8525ZM438.647 84.1172L438.174 84.9982L438.181 85.0016L438.187 85.0049L438.647 84.1172ZM428.101 79.21L428.49 78.2887L428.487 78.2875L428.101 79.21ZM414.185 71.8857L413.576 72.6794L413.582 72.6842L414.185 71.8857ZM407.739 64.1953L406.827 64.6057L406.831 64.6149L406.836 64.6241L407.739 64.1953ZM414.185 36.583L414.76 37.4006L414.762 37.3996L414.185 36.583ZM466.992 37.0225L467.915 37.4083L468.287 36.518L467.411 36.1142L466.992 37.0225ZM460.254 53.1357L459.86 54.0549L460.787 54.4523L461.176 53.5215L460.254 53.1357ZM431.104 57.6768L430.531 58.4969L430.54 58.503L431.104 57.6768ZM445.093 64.1953L445.468 63.2683L445.465 63.2673L445.093 64.1953ZM466.871 89.6836C466.871 97.8199 464.05 103.897 458.482 108.073L459.682 109.673C465.833 105.06 468.871 98.3442 468.871 89.6836H466.871ZM458.479 108.075C452.918 112.281 444.458 114.465 432.935 114.465V116.465C444.653 116.465 453.625 114.254 459.685 109.671L458.479 108.075ZM432.935 114.465C427.019 114.465 422.01 114.052 417.894 113.239L417.506 115.201C421.789 116.047 426.936 116.465 432.935 116.465V114.465ZM417.883 113.237C413.751 112.468 409.891 111.316 406.301 109.784L405.516 111.624C409.25 113.217 413.251 114.409 417.517 115.203L417.883 113.237ZM406.908 110.704V92.2471H404.908V110.704H406.908ZM405.482 93.1519C409.699 95.136 414.423 96.7918 419.651 98.1234L420.144 96.1852C415.02 94.8801 410.418 93.2643 406.334 91.3423L405.482 93.1519ZM419.653 98.1239C424.931 99.4557 429.606 100.132 433.667 100.132V98.1318C429.818 98.1318 425.313 97.4896 420.142 96.1847L419.653 98.1239ZM433.667 100.132C437.783 100.132 441.034 99.5425 443.286 98.2397C445.622 96.8888 446.825 94.8008 446.825 92.1006H444.825C444.825 94.0879 444.002 95.5155 442.285 96.5084C440.485 97.5493 437.656 98.1318 433.667 98.1318V100.132ZM446.825 92.1006C446.825 90.1227 446.212 88.4368 444.921 87.1454L443.507 88.5596C444.364 89.4167 444.825 90.5629 444.825 92.1006H446.825ZM444.937 87.1613C443.745 85.916 441.77 84.6099 439.108 83.2294L438.187 85.0049C440.798 86.3589 442.534 87.543 443.491 88.5438L444.937 87.1613ZM439.121 83.2362C436.445 81.7995 432.898 80.1501 428.49 78.2887L427.712 80.1312C432.092 81.9808 435.576 83.6029 438.174 84.9982L439.121 83.2362ZM428.487 78.2875C422.212 75.6611 417.665 73.2578 414.787 71.0873L413.582 72.6842C416.661 75.0058 421.391 77.4854 427.714 80.1324L428.487 78.2875ZM414.793 71.0921C411.969 68.9273 409.932 66.4831 408.643 63.7666L406.836 64.6241C408.281 67.6693 410.54 70.352 413.576 72.6794L414.793 71.0921ZM408.651 63.785C407.406 61.0187 406.762 57.5787 406.762 53.4287H404.762C404.762 57.7748 405.435 61.5125 406.827 64.6057L408.651 63.785ZM406.762 53.4287C406.762 46.4559 409.429 41.1556 414.76 37.4006L413.609 35.7654C407.709 39.9206 404.762 45.8508 404.762 53.4287H406.762ZM414.762 37.3996C420.193 33.5606 427.967 31.5771 438.208 31.5771V29.5771C427.746 29.5771 419.505 31.5976 413.607 35.7664L414.762 37.3996ZM438.208 31.5771C447.921 31.5771 457.373 33.6917 466.574 37.9307L467.411 36.1142C457.959 31.7594 448.222 29.5771 438.208 29.5771V31.5771ZM466.07 36.6367L459.331 52.7499L461.176 53.5215L467.915 37.4083L466.07 36.6367ZM460.648 52.2166C456.521 50.4481 452.657 48.9954 449.055 47.8607L448.454 49.7682C451.982 50.8796 455.783 52.3077 459.86 54.0549L460.648 52.2166ZM449.055 47.8607C445.394 46.7072 441.655 46.1299 437.842 46.1299V48.1299C441.45 48.1299 444.986 48.6756 448.454 49.7682L449.055 47.8607ZM437.842 46.1299C434.488 46.1299 431.817 46.5776 429.95 47.5869C429.002 48.0997 428.241 48.7687 427.721 49.6126C427.199 50.4592 426.954 51.4258 426.954 52.4766H428.954C428.954 51.7451 429.121 51.1522 429.423 50.6621C429.727 50.1694 430.202 49.7245 430.902 49.3462C432.331 48.5733 434.603 48.1299 437.842 48.1299V46.1299ZM426.954 52.4766C426.954 54.8953 428.247 56.9032 430.531 58.4969L431.676 56.8566C429.761 55.5207 428.954 54.0617 428.954 52.4766H426.954ZM430.54 58.503C432.793 60.0392 437.559 62.2492 444.72 65.1234L445.465 63.2673C438.271 60.3797 433.711 58.244 431.667 56.8505L430.54 58.503ZM444.718 65.1223C451.089 67.7002 455.68 70.0782 458.553 72.2447L459.757 70.6479C456.673 68.3222 451.889 65.8662 445.468 63.2683L444.718 65.1223ZM458.553 72.2447C461.424 74.4092 463.509 76.8782 464.847 79.6451L466.647 78.7748C465.153 75.6824 462.844 72.9755 459.757 70.6479L458.553 72.2447ZM464.847 79.6451C466.183 82.41 466.871 85.7455 466.871 89.6836H468.871C468.871 85.5163 468.143 81.8693 466.647 78.7748L464.847 79.6451Z" fill="url(#paint0_linear_119_7)" fill-opacity="0.5"/>
<defs>
<linearGradient id="paint0_linear_119_7" x1="252.5" y1="-46" x2="252.5" y2="114" gradientUnits="userSpaceOnUse">
<stop offset="0.515625" stop-color="#F75276"/>
<stop offset="1" stop-color="#829DFF" stop-opacity="0"/>
</linearGradient>
</defs>
</svg>
